<svg version="1.1" xmlns="http://www.w3.org/2000/svg" style="display: block;" viewBox="0 0 2048 2048" width="1024" height="1024" preserveAspectRatio="none">
<defs>
	<linearGradient id="Gradient1" gradientUnits="userSpaceOnUse" x1="1563.13" y1="1323.49" x2="1556.29" y2="1279.8">
		<stop class="stop0" offset="0" stop-opacity="1" stop-color="rgb(185,147,134)"/>
		<stop class="stop1" offset="1" stop-opacity="1" stop-color="rgb(228,205,197)"/>
	</linearGradient>
	<linearGradient id="Gradient2" gradientUnits="userSpaceOnUse" x1="1519.1" y1="1313.74" x2="1543.88" y2="1273.26">
		<stop class="stop0" offset="0" stop-opacity="1" stop-color="rgb(165,141,129)"/>
		<stop class="stop1" offset="1" stop-opacity="1" stop-color="rgb(203,191,183)"/>
	</linearGradient>
	<linearGradient id="Gradient3" gradientUnits="userSpaceOnUse" x1="1420.72" y1="1386.07" x2="1371.55" y2="1415.01">
		<stop class="stop0" offset="0" stop-opacity="1" stop-color="rgb(44,46,16)"/>
		<stop class="stop1" offset="1" stop-opacity="1" stop-color="rgb(54,39,36)"/>
	</linearGradient>
	<linearGradient id="Gradient4" gradientUnits="userSpaceOnUse" x1="1319.87" y1="1427.07" x2="1316.67" y2="1444.37">
		<stop class="stop0" offset="0" stop-opacity="1" stop-color="rgb(96,70,33)"/>
		<stop class="stop1" offset="1" stop-opacity="1" stop-color="rgb(101,49,38)"/>
	</linearGradient>
</defs>
<path transform="translate(0,0)" fill="rgb(255,255,255)" d="M 968.477 0 L 1079.86 0 L 1080.92 0.157006 C 1089.17 1.33101 1098.16 1.90875 1106.5 2.49756 C 1147.02 5.35691 1187.72 11.4539 1227.43 19.9271 C 1475.28 72.2018 1695.46 213.315 1846.48 416.679 C 1863.77 439.505 1879.17 463.51 1894.19 487.869 C 1964.43 600.784 2011.92 726.344 2033.98 857.482 C 2038.48 884.257 2041.92 911.197 2044.29 938.242 C 2045.12 948.669 2046.38 980.809 2048 988.477 L 2048 1061.71 L 2047.85 1062.64 C 2045.6 1077.53 2045.29 1103.8 2043.74 1120.33 C 2039.92 1158.78 2033.92 1196.99 2025.77 1234.76 C 1973.35 1477.35 1835.06 1692.83 1636.36 1841.52 C 1474.35 1962.41 1292.1 2032.11 1091.82 2045.81 C 1084.55 2046.31 1070.45 2046.38 1063.69 2048 L 986.134 2048 C 977.195 2046.19 950.175 2045.3 939.536 2044.44 C 914.219 2042.28 889.002 2039.08 863.948 2034.86 C 712.764 2010.09 569.033 1951.82 443.286 1864.32 C 231.349 1717.74 82.2035 1496.91 25.4008 1245.56 C 16.1776 1204.91 9.47535 1163.73 5.33237 1122.25 C 3.46062 1103.42 3.57623 1076.27 0 1058.56 L 0 991.535 C 1.84842 982.519 3.21867 953.036 4.13438 941.945 C 6.41697 913.709 9.84614 885.578 14.4134 857.621 C 41.5292 696.866 106.443 544.851 203.81 414.095 C 349.07 219.383 558.11 81.8821 794.428 25.6046 C 831.51 16.9604 869.04 10.3704 906.848 5.86475 C 925.549 3.70985 949.937 2.7866 967.444 0.162117 L 968.477 0 z"/>
<path transform="translate(0,0)" fill="rgb(60,56,53)" d="M 1442.19 1039.74 C 1448.99 1030.42 1477.64 996.62 1493.54 1007.5 C 1498.19 1010.69 1497.08 1029.04 1497.01 1035.26 C 1518.07 1026.24 1565.7 1013.94 1562.31 1052.6 C 1561.01 1067.43 1559.81 1074.91 1552.79 1088.08 C 1561.05 1093.5 1582.96 1112.72 1576.03 1123.73 C 1567.08 1128.11 1559.98 1123.18 1542.4 1133.14 C 1561.99 1165.67 1586.09 1206.44 1589.78 1244.86 C 1606.45 1250.08 1665.67 1269.35 1674.63 1281.95 C 1675.82 1289.72 1669.05 1319.86 1664.51 1327.13 C 1661.69 1331.66 1646.91 1333.25 1642.83 1341.07 C 1635.54 1355.05 1631.2 1371.47 1624.77 1385.7 C 1600.71 1438.99 1568.98 1469.57 1509.23 1470.3 C 1495.86 1470.42 1482.49 1469.33 1469.31 1467.04 C 1495.01 1494.74 1511.58 1518.73 1525.32 1554.5 C 1544.19 1603.62 1508.8 1601.26 1480.43 1573.08 C 1473.99 1609.99 1454.26 1587.25 1438.98 1575.64 C 1436.88 1577.23 1437.04 1577.32 1435.76 1579.68 C 1423.59 1598.11 1405.52 1611.86 1384.51 1618.66 L 1384.42 1619.68 L 1382.19 1621.07 C 1381.49 1624.36 1381.71 1624.67 1382.1 1627.94 C 1377.37 1655.19 1372.75 1651.94 1349.94 1658.35 C 1346.24 1658.66 1341.7 1658.82 1338.2 1659.71 C 1332.35 1662.13 1293.36 1661.02 1284.06 1660.91 C 1279.6 1660.34 1277.4 1660.22 1273.21 1658.76 C 1268.34 1659.19 1266.6 1659.04 1261.7 1658.56 C 1249.82 1651.73 1242.77 1661.25 1234.33 1644.87 L 1232.79 1641.13 C 1230.76 1635.3 1230.45 1634.07 1229.85 1627.94 L 1210.78 1627.71 C 1218.62 1627.63 1223.07 1628.26 1230.09 1624.86 L 1230.03 1623.48 C 1226.5 1620.44 1223.41 1620.88 1218.44 1620.34 C 1222.84 1620.3 1224.72 1620.07 1229.08 1619.37 C 1187.53 1604.42 1158.6 1575.78 1163.06 1529.01 C 1164.75 1511.25 1172.4 1496.58 1180.55 1481.09 C 1164.81 1480.47 1149.47 1476 1135.86 1468.09 C 1115.91 1456.72 1090.95 1433.17 1084.64 1410.62 C 1080.46 1406.3 1075.02 1402.82 1070.42 1398.44 C 1052.33 1381.19 1046.53 1368.18 1040.85 1344.67 C 1036.99 1339 1026.26 1330.15 1020.26 1321.02 C 995.189 1282.91 998.593 1235.81 1006.91 1193.21 L 1007.08 1192.32 C 1006.79 1175 1006.11 1174.81 994.966 1161.11 C 996.351 1152.98 1001.77 1126.31 1005.95 1121.2 C 1015.82 1109.1 1052.54 1119.79 1066.35 1117.69 C 1078.31 1105.44 1090.65 1095.39 1090.29 1076.78 C 1090.04 1064.45 1085.02 1055.52 1076.15 1046.99 C 1072.71 1043.69 1068.15 1042.31 1066.39 1038.5 C 1067.68 1031.48 1074.6 1031.54 1080.73 1029.98 C 1096.04 1026.07 1108.18 1026.83 1123.32 1031.05 C 1123.13 1022.68 1122.03 1003.5 1135.93 1005.21 C 1149.45 1006.87 1162.86 1020.15 1171.95 1029.59 C 1185.56 1024.11 1200.33 1018.07 1214.58 1014.81 C 1277.7 1000.4 1363.6 1004.93 1423.03 1029.98 C 1429.68 1032.7 1436.08 1035.97 1442.19 1039.74 z"/>
<path transform="translate(0,0)" fill="rgb(157,100,80)" d="M 1442.19 1039.74 C 1448.99 1030.42 1477.64 996.62 1493.54 1007.5 C 1498.19 1010.69 1497.08 1029.04 1497.01 1035.26 C 1518.07 1026.24 1565.7 1013.94 1562.31 1052.6 C 1561.01 1067.43 1559.81 1074.91 1552.79 1088.08 C 1561.05 1093.5 1582.96 1112.72 1576.03 1123.73 C 1567.08 1128.11 1559.98 1123.18 1542.4 1133.14 C 1561.99 1165.67 1586.09 1206.44 1589.78 1244.86 C 1586.57 1244.3 1585.82 1244.41 1583.02 1242.71 C 1576.1 1240.55 1568.3 1237.89 1561.28 1236.48 C 1553.23 1234.46 1545.16 1232.52 1537.07 1230.64 C 1529.37 1229.53 1521.91 1228.05 1514.28 1226.57 C 1480.4 1221.06 1447.51 1218.69 1413.15 1219.13 C 1384.47 1219.5 1353.58 1230.77 1326.64 1223.78 C 1302.74 1217.57 1288.04 1196.31 1265.77 1183.25 C 1226.71 1160.32 1192.29 1146.92 1149.27 1134.04 C 1142.2 1132.42 1135.15 1130.74 1128.11 1129 C 1118.46 1126.78 1108.75 1124.79 1099 1123.03 C 1091.71 1121.72 1083.4 1120.69 1076.01 1119.6 C 1072.04 1119.17 1070.26 1118.7 1066.35 1117.69 C 1078.31 1105.44 1090.65 1095.39 1090.29 1076.78 C 1090.04 1064.45 1085.02 1055.52 1076.15 1046.99 C 1072.71 1043.69 1068.15 1042.31 1066.39 1038.5 C 1067.68 1031.48 1074.6 1031.54 1080.73 1029.98 C 1096.04 1026.07 1108.18 1026.83 1123.32 1031.05 C 1123.13 1022.68 1122.03 1003.5 1135.93 1005.21 C 1149.45 1006.87 1162.86 1020.15 1171.95 1029.59 C 1185.56 1024.11 1200.33 1018.07 1214.58 1014.81 C 1277.7 1000.4 1363.6 1004.93 1423.03 1029.98 C 1429.68 1032.7 1436.08 1035.97 1442.19 1039.74 z"/>
<path transform="translate(0,0)" fill="rgb(255,255,255)" d="M 1149.27 1134.04 C 1164.59 1117.75 1185.67 1108.07 1208.02 1107.08 C 1236.34 1105.99 1264.88 1119.81 1285.05 1138.97 C 1295.69 1149.09 1302.32 1161.25 1310.91 1172.94 C 1315.82 1164.79 1319.95 1157.45 1326.24 1150.05 C 1388.34 1077.01 1493.1 1111 1511.9 1201.93 C 1513 1207.24 1516.41 1221.63 1514.28 1226.57 C 1480.4 1221.06 1447.51 1218.69 1413.15 1219.13 C 1384.47 1219.5 1353.58 1230.77 1326.64 1223.78 C 1302.74 1217.57 1288.04 1196.31 1265.77 1183.25 C 1226.71 1160.32 1192.29 1146.92 1149.27 1134.04 z"/>
<path transform="translate(0,0)" fill="rgb(123,76,57)" d="M 1099 1123.03 C 1104.34 1119.57 1109.82 1115.93 1114.84 1112.01 C 1142.53 1090.39 1179.75 1078.39 1214.73 1085.77 C 1252.76 1093.9 1286.01 1116.79 1307.18 1149.41 C 1308.16 1150.93 1309.12 1152.47 1310.07 1154.01 C 1326.37 1123.02 1355.79 1100.23 1389.07 1089.92 C 1421.44 1079.81 1456.52 1083.2 1486.35 1099.33 C 1535.17 1125.18 1560.82 1183.1 1561.28 1236.48 C 1553.23 1234.46 1545.16 1232.52 1537.07 1230.64 C 1529.37 1229.53 1521.91 1228.05 1514.28 1226.57 C 1516.41 1221.63 1513 1207.24 1511.9 1201.93 C 1493.1 1111 1388.34 1077.01 1326.24 1150.05 C 1319.95 1157.45 1315.82 1164.79 1310.91 1172.94 C 1302.32 1161.25 1295.69 1149.09 1285.05 1138.97 C 1264.88 1119.81 1236.34 1105.99 1208.02 1107.08 C 1185.67 1108.07 1164.59 1117.75 1149.27 1134.04 C 1142.2 1132.42 1135.15 1130.74 1128.11 1129 C 1118.46 1126.78 1108.75 1124.79 1099 1123.03 z"/>
<path transform="translate(0,0)" fill="rgb(203,203,203)" d="M 1310.58 1164.77 C 1324.25 1141.43 1335.77 1126.91 1359.01 1112.2 C 1394.22 1089.91 1435.81 1088.8 1471.83 1110.27 C 1502.54 1128.82 1524.5 1158.92 1532.79 1193.82 C 1535.66 1205.88 1537.1 1218.24 1537.07 1230.64 C 1529.37 1229.53 1521.91 1228.05 1514.28 1226.57 C 1516.41 1221.63 1513 1207.24 1511.9 1201.93 C 1493.1 1111 1388.34 1077.01 1326.24 1150.05 C 1319.95 1157.45 1315.82 1164.79 1310.91 1172.94 C 1302.32 1161.25 1295.69 1149.09 1285.05 1138.97 C 1264.88 1119.81 1236.34 1105.99 1208.02 1107.08 C 1185.67 1108.07 1164.59 1117.75 1149.27 1134.04 C 1142.2 1132.42 1135.15 1130.74 1128.11 1129 C 1172.5 1085.54 1225.07 1084.63 1273.97 1122.51 C 1289.95 1134.9 1299.6 1147.95 1310.58 1164.77 z"/>
<path transform="translate(0,0)" fill="rgb(95,53,35)" d="M 1442.19 1039.74 C 1448.99 1030.42 1477.64 996.62 1493.54 1007.5 C 1498.19 1010.69 1497.08 1029.04 1497.01 1035.26 C 1518.07 1026.24 1565.7 1013.94 1562.31 1052.6 C 1561.01 1067.43 1559.81 1074.91 1552.79 1088.08 C 1561.05 1093.5 1582.96 1112.72 1576.03 1123.73 C 1567.08 1128.11 1559.98 1123.18 1542.4 1133.14 C 1561.99 1165.67 1586.09 1206.44 1589.78 1244.86 C 1586.57 1244.3 1585.82 1244.41 1583.02 1242.71 C 1578.43 1216.14 1550.5 1152.22 1532.29 1132.64 C 1546.54 1121.97 1551.72 1119.53 1569.59 1117.25 C 1562.65 1102.36 1556.12 1095.59 1539.72 1093.15 C 1555.31 1073.29 1554.39 1060.82 1553.25 1036.86 C 1523.17 1028.92 1516.37 1035.23 1489.34 1046.79 C 1489.82 1040.79 1489.85 1034.81 1489.97 1028.79 C 1465.15 1034.76 1461.19 1045.12 1444.24 1062.99 C 1439.41 1060.43 1434.48 1058.07 1429.46 1055.91 C 1352.7 1023.46 1245.55 1019.1 1167.69 1050.8 C 1156.82 1035.7 1150.76 1025.64 1130.7 1024.88 C 1130.9 1028.18 1131.79 1038.01 1131.01 1040.74 C 1115.35 1034.67 1097.4 1031.18 1081.27 1037.73 L 1080.19 1039.01 C 1081.54 1040.2 1080.91 1039.93 1081.82 1040.24 C 1094.18 1054.98 1098.05 1065.28 1097.29 1084.61 C 1096.52 1103.93 1079.58 1111.33 1076.01 1119.6 C 1072.04 1119.17 1070.26 1118.7 1066.35 1117.69 C 1078.31 1105.44 1090.65 1095.39 1090.29 1076.78 C 1090.04 1064.45 1085.02 1055.52 1076.15 1046.99 C 1072.71 1043.69 1068.15 1042.31 1066.39 1038.5 C 1067.68 1031.48 1074.6 1031.54 1080.73 1029.98 C 1096.04 1026.07 1108.18 1026.83 1123.32 1031.05 C 1123.13 1022.68 1122.03 1003.5 1135.93 1005.21 C 1149.45 1006.87 1162.86 1020.15 1171.95 1029.59 C 1185.56 1024.11 1200.33 1018.07 1214.58 1014.81 C 1277.7 1000.4 1363.6 1004.93 1423.03 1029.98 C 1429.68 1032.7 1436.08 1035.97 1442.19 1039.74 z"/>
<path transform="translate(0,0)" fill="rgb(192,124,101)" d="M 1444.75 1048.82 C 1451.41 1040.85 1476.85 1006.39 1488.63 1013.8 C 1490.2 1017.8 1489.96 1024.3 1489.97 1028.79 C 1465.15 1034.76 1461.19 1045.12 1444.24 1062.99 C 1439.41 1060.43 1434.48 1058.07 1429.46 1055.91 C 1352.7 1023.46 1245.55 1019.1 1167.69 1050.8 C 1156.82 1035.7 1150.76 1025.64 1130.7 1024.88 C 1130.8 1021.42 1130.36 1016.4 1132.32 1013.9 C 1144.58 1009.82 1162.92 1030.61 1170.33 1038.85 C 1185.73 1031.87 1201.48 1024.98 1218.5 1021.18 C 1278.93 1007.68 1352.06 1012.45 1410.59 1032.66 C 1420.5 1036.08 1435.64 1043.84 1444.75 1048.82 z"/>
<path transform="translate(0,0)" fill="rgb(192,124,101)" d="M 1081.82 1040.24 C 1080.91 1039.93 1081.54 1040.2 1080.19 1039.01 L 1081.27 1037.73 C 1097.4 1031.18 1115.35 1034.67 1131.01 1040.74 C 1132.52 1045.16 1132.91 1049.48 1133.58 1054.12 C 1116.49 1044.63 1101.18 1042.14 1081.82 1040.24 z"/>
<path transform="translate(0,0)" fill="rgb(187,133,87)" d="M 1223.46 1437.98 C 1239.28 1446.84 1248.58 1452.33 1266.34 1457.32 C 1273.16 1459.24 1294.53 1463.55 1299.11 1465.76 L 1308.47 1466.1 C 1317.23 1467.01 1343.59 1472.45 1348.7 1478.7 L 1350.1 1475.64 C 1350.99 1473.29 1352.6 1466.13 1353.3 1463.35 L 1356.3 1462.06 C 1358.54 1459.66 1363.03 1452.66 1365.1 1449.63 C 1372.27 1448.68 1382.22 1448.66 1389.45 1449.15 L 1419.36 1449.15 C 1426.4 1452.11 1433.04 1455.51 1439.95 1458.42 C 1446.33 1460.4 1451.46 1461.96 1457.62 1464.55 C 1461.1 1465.34 1464.96 1466.13 1468.38 1467.02 L 1469.31 1467.04 C 1495.01 1494.74 1511.58 1518.73 1525.32 1554.5 C 1544.19 1603.62 1508.8 1601.26 1480.43 1573.08 C 1473.99 1609.99 1454.26 1587.25 1438.98 1575.64 C 1436.88 1577.23 1437.04 1577.32 1435.76 1579.68 C 1423.59 1598.11 1405.52 1611.86 1384.51 1618.66 L 1384.42 1619.68 L 1382.19 1621.07 C 1381.49 1624.36 1381.71 1624.67 1382.1 1627.94 C 1377.37 1655.19 1372.75 1651.94 1349.94 1658.35 C 1346.24 1658.66 1341.7 1658.82 1338.2 1659.71 C 1332.35 1662.13 1293.36 1661.02 1284.06 1660.91 C 1279.6 1660.34 1277.4 1660.22 1273.21 1658.76 C 1268.34 1659.19 1266.6 1659.04 1261.7 1658.56 C 1249.82 1651.73 1242.77 1661.25 1234.33 1644.87 L 1232.79 1641.13 C 1230.76 1635.3 1230.45 1634.07 1229.85 1627.94 L 1210.78 1627.71 C 1218.62 1627.63 1223.07 1628.26 1230.09 1624.86 L 1230.03 1623.48 C 1226.5 1620.44 1223.41 1620.88 1218.44 1620.34 C 1222.84 1620.3 1224.72 1620.07 1229.08 1619.37 C 1187.53 1604.42 1158.6 1575.78 1163.06 1529.01 C 1164.75 1511.25 1172.4 1496.58 1180.55 1481.09 L 1181.66 1479.79 C 1186.37 1477.97 1186.81 1478.2 1192 1478.64 C 1211.25 1475.87 1220.41 1454.78 1223.46 1437.98 z"/>
<path transform="translate(0,0)" fill="rgb(166,192,69)" d="M 1365.1 1449.63 C 1372.27 1448.68 1382.22 1448.66 1389.45 1449.15 L 1419.36 1449.15 C 1426.4 1452.11 1433.04 1455.51 1439.95 1458.42 C 1446.33 1460.4 1451.46 1461.96 1457.62 1464.55 C 1461.1 1465.34 1464.96 1466.13 1468.38 1467.02 L 1469.31 1467.04 C 1495.01 1494.74 1511.58 1518.73 1525.32 1554.5 C 1544.19 1603.62 1508.8 1601.26 1480.43 1573.08 C 1473.99 1609.99 1454.26 1587.25 1438.98 1575.64 C 1436.88 1577.23 1437.04 1577.32 1435.76 1579.68 C 1423.59 1598.11 1405.52 1611.86 1384.51 1618.66 C 1380.9 1616.97 1381.38 1615.97 1380.35 1612.49 L 1378.58 1607.7 C 1384.9 1601.88 1400.02 1588.77 1396.18 1579.78 L 1399.59 1582.33 C 1401.22 1577.39 1401.7 1573.71 1403.79 1568.06 C 1402.97 1564.56 1401.48 1560.56 1400.31 1557.11 C 1387.63 1565.18 1380.07 1563.75 1370.46 1550.31 C 1367.88 1546.7 1364.66 1540.9 1363.99 1536.54 C 1364.5 1530.08 1355.81 1520.26 1354.53 1512.77 C 1356.67 1514.45 1357.06 1514.55 1359.78 1514.73 C 1358.88 1509.15 1357.43 1508.22 1353.5 1504.09 C 1352.76 1487.94 1352.66 1477.88 1356.3 1462.06 C 1358.54 1459.66 1363.03 1452.66 1365.1 1449.63 z"/>
<path transform="translate(0,0)" fill="rgb(102,116,45)" d="M 1439.95 1458.42 C 1446.33 1460.4 1451.46 1461.96 1457.62 1464.55 C 1461.1 1465.34 1464.96 1466.13 1468.38 1467.02 L 1469.31 1467.04 C 1495.01 1494.74 1511.58 1518.73 1525.32 1554.5 C 1544.19 1603.62 1508.8 1601.26 1480.43 1573.08 C 1473.99 1609.99 1454.26 1587.25 1438.98 1575.64 C 1436.88 1577.23 1437.04 1577.32 1435.76 1579.68 L 1433.58 1578.92 C 1442.25 1564.03 1436.23 1577.75 1439.45 1563.43 C 1446.34 1568.53 1449.19 1581.82 1460.51 1584.33 C 1475.79 1587.73 1476.25 1562.29 1469.24 1555.72 C 1466.88 1551.25 1462.39 1535.31 1460.67 1529.68 C 1463.92 1533.48 1467.15 1537.3 1470.36 1541.15 C 1482.5 1554.51 1493.78 1561.46 1511.82 1564.66 C 1501.93 1531.5 1480.1 1499.17 1455.49 1475.26 C 1450.51 1470.41 1444.83 1465.87 1439.6 1460.91 L 1439.95 1458.42 z"/>
<path transform="translate(0,0)" fill="rgb(199,221,105)" d="M 1439.95 1458.42 C 1446.33 1460.4 1451.46 1461.96 1457.62 1464.55 C 1481.51 1490.39 1503.28 1517.29 1515.95 1550.66 C 1519.24 1559.34 1522.8 1568.16 1522.41 1577.64 C 1522.23 1582.26 1520.39 1583.37 1517.09 1586.08 C 1516.05 1578.79 1513.84 1571.76 1511.82 1564.66 C 1501.93 1531.5 1480.1 1499.17 1455.49 1475.26 C 1450.51 1470.41 1444.83 1465.87 1439.6 1460.91 L 1439.95 1458.42 z"/>
<path transform="translate(0,0)" fill="rgb(131,149,62)" d="M 1470.36 1541.15 C 1482.5 1554.51 1493.78 1561.46 1511.82 1564.66 C 1513.84 1571.76 1516.05 1578.79 1517.09 1586.08 C 1500.38 1585.66 1469.38 1556.89 1470.36 1541.15 z"/>
<path transform="translate(0,0)" fill="rgb(115,135,52)" d="M 1363.99 1536.54 C 1364.5 1530.08 1355.81 1520.26 1354.53 1512.77 C 1356.67 1514.45 1357.06 1514.55 1359.78 1514.73 L 1360.92 1513.94 C 1364.15 1524.83 1375.96 1552.77 1387.28 1556.11 C 1399.61 1550.91 1399.54 1536.69 1400.99 1525.07 C 1402.71 1539.88 1407.08 1570.34 1423.98 1574.88 C 1437.35 1572.52 1432.23 1545.37 1430.29 1535.52 L 1430.01 1530.31 L 1430.74 1529.99 C 1438.14 1540.99 1452.45 1569.58 1469.24 1555.72 C 1476.25 1562.29 1475.79 1587.73 1460.51 1584.33 C 1449.19 1581.82 1446.34 1568.53 1439.45 1563.43 C 1436.23 1577.75 1442.25 1564.03 1433.58 1578.92 L 1435.76 1579.68 C 1423.59 1598.11 1405.52 1611.86 1384.51 1618.66 C 1380.9 1616.97 1381.38 1615.97 1380.35 1612.49 L 1378.58 1607.7 C 1384.9 1601.88 1400.02 1588.77 1396.18 1579.78 L 1399.59 1582.33 C 1401.22 1577.39 1401.7 1573.71 1403.79 1568.06 C 1402.97 1564.56 1401.48 1560.56 1400.31 1557.11 C 1387.63 1565.18 1380.07 1563.75 1370.46 1550.31 C 1367.88 1546.7 1364.66 1540.9 1363.99 1536.54 z"/>
<path transform="translate(0,0)" fill="rgb(95,53,35)" d="M 1433.58 1578.92 L 1435.76 1579.68 C 1423.59 1598.11 1405.52 1611.86 1384.51 1618.66 C 1380.9 1616.97 1381.38 1615.97 1380.35 1612.49 L 1378.58 1607.7 C 1384.9 1601.88 1400.02 1588.77 1396.18 1579.78 L 1399.59 1582.33 C 1403.28 1588.99 1411.34 1588.85 1418.23 1589.34 C 1422.72 1583.78 1427.06 1583.97 1433.58 1578.92 z"/>
<path transform="translate(0,0)" fill="rgb(157,100,80)" d="M 1396.18 1579.78 L 1399.59 1582.33 C 1403.28 1588.99 1411.34 1588.85 1418.23 1589.34 C 1406.6 1600.69 1395.36 1606.12 1380.35 1612.49 L 1378.58 1607.7 C 1384.9 1601.88 1400.02 1588.77 1396.18 1579.78 z"/>
<path transform="translate(0,0)" fill="rgb(110,69,32)" d="M 1403.79 1568.06 C 1408.7 1573.41 1414.88 1581.67 1422.16 1581.91 C 1426.28 1582.05 1429.26 1579.79 1433.58 1578.92 C 1427.06 1583.97 1422.72 1583.78 1418.23 1589.34 C 1411.34 1588.85 1403.28 1588.99 1399.59 1582.33 C 1401.22 1577.39 1401.7 1573.71 1403.79 1568.06 z"/>
<path transform="translate(0,0)" fill="rgb(131,149,62)" d="M 1365.1 1449.63 C 1372.27 1448.68 1382.22 1448.66 1389.45 1449.15 C 1384.23 1449.46 1379.25 1449.76 1374 1449.85 C 1366.57 1460.48 1360.2 1472.11 1362.13 1485.65 C 1364.47 1497.82 1372.76 1526.37 1387.16 1528.2 C 1397.61 1524.32 1395.08 1507.76 1394.82 1498.58 C 1399.1 1511.28 1409.36 1550.58 1427.89 1544.84 C 1430.92 1541.64 1430.29 1540.45 1430.29 1535.52 C 1432.23 1545.37 1437.35 1572.52 1423.98 1574.88 C 1407.08 1570.34 1402.71 1539.88 1400.99 1525.07 C 1399.54 1536.69 1399.61 1550.91 1387.28 1556.11 C 1375.96 1552.77 1364.15 1524.83 1360.92 1513.94 L 1359.78 1514.73 C 1358.88 1509.15 1357.43 1508.22 1353.5 1504.09 C 1352.76 1487.94 1352.66 1477.88 1356.3 1462.06 C 1358.54 1459.66 1363.03 1452.66 1365.1 1449.63 z"/>
<path transform="translate(0,0)" fill="rgb(102,116,45)" d="M 1365.1 1449.63 C 1372.27 1448.68 1382.22 1448.66 1389.45 1449.15 C 1384.23 1449.46 1379.25 1449.76 1374 1449.85 C 1366.57 1460.48 1360.2 1472.11 1362.13 1485.65 L 1360.71 1484.84 C 1354.11 1506.01 1371.88 1541.89 1387.28 1556.11 C 1375.96 1552.77 1364.15 1524.83 1360.92 1513.94 L 1359.78 1514.73 C 1358.88 1509.15 1357.43 1508.22 1353.5 1504.09 C 1352.76 1487.94 1352.66 1477.88 1356.3 1462.06 C 1358.54 1459.66 1363.03 1452.66 1365.1 1449.63 z"/>
<path transform="translate(0,0)" fill="rgb(144,89,29)" d="M 1236.05 1603.68 C 1245.72 1594.97 1244.36 1599.87 1254.38 1598.52 C 1256.48 1598.23 1262.81 1589.96 1269.81 1592.85 C 1273.62 1593.37 1281.98 1599.6 1283.76 1599.45 C 1297.83 1598.29 1300.03 1605.22 1306.1 1619.49 C 1312.33 1603.66 1312.55 1598.57 1329.85 1599.13 C 1334.44 1599.28 1338.82 1587.13 1352.18 1596.13 C 1364.51 1604.44 1364.86 1592.62 1378.58 1607.7 L 1380.35 1612.49 C 1381.38 1615.97 1380.9 1616.97 1384.51 1618.66 L 1384.42 1619.68 L 1382.19 1621.07 C 1381.49 1624.36 1381.71 1624.67 1382.1 1627.94 C 1377.37 1655.19 1372.75 1651.94 1349.94 1658.35 C 1346.24 1658.66 1341.7 1658.82 1338.2 1659.71 C 1332.35 1662.13 1293.36 1661.02 1284.06 1660.91 C 1279.6 1660.34 1277.4 1660.22 1273.21 1658.76 C 1268.34 1659.19 1266.6 1659.04 1261.7 1658.56 C 1249.82 1651.73 1242.77 1661.25 1234.33 1644.87 L 1232.79 1641.13 C 1230.76 1635.3 1230.45 1634.07 1229.85 1627.94 L 1210.78 1627.71 C 1218.62 1627.63 1223.07 1628.26 1230.09 1624.86 L 1230.03 1623.48 C 1226.5 1620.44 1223.41 1620.88 1218.44 1620.34 C 1222.84 1620.3 1224.72 1620.07 1229.08 1619.37 C 1229.78 1617.77 1230.46 1613.86 1230.86 1611.96 C 1233.56 1608.51 1234.17 1607.62 1236.05 1603.68 z"/>
<path transform="translate(0,0)" fill="rgb(187,133,87)" d="M 1298.88 1643.9 L 1300.08 1639.98 L 1311.25 1640.81 C 1312.33 1643.36 1312.53 1643.27 1312.93 1645.91 C 1320.3 1661.65 1325.21 1649.09 1338.2 1659.71 C 1332.35 1662.13 1293.36 1661.02 1284.06 1660.91 C 1279.6 1660.34 1277.4 1660.22 1273.21 1658.76 C 1286.68 1648.32 1290.07 1659.97 1298.88 1643.9 z"/>
<path transform="translate(0,0)" fill="rgb(149,97,53)" d="M 1298.88 1643.9 L 1300.08 1639.98 L 1311.25 1640.81 C 1312.33 1643.36 1312.53 1643.27 1312.93 1645.91 C 1310.37 1644.71 1302.13 1644.22 1298.88 1643.9 z"/>
<path transform="translate(0,0)" fill="rgb(159,118,80)" d="M 1300.08 1639.98 C 1301.34 1636.08 1302.19 1631.82 1305.1 1629.12 C 1309.13 1630.45 1309.72 1636.98 1311.25 1640.81 L 1300.08 1639.98 z"/>
<path transform="translate(0,0)" fill="rgb(239,169,73)" d="M 1265.22 1599.16 C 1278.58 1601.04 1273.82 1606.42 1282.2 1606.2 C 1283.66 1606.16 1285.47 1603.82 1289.93 1605.29 C 1301.58 1613.91 1296.77 1645.58 1285.86 1645.53 C 1282.01 1642.18 1282.27 1639.34 1281.25 1633.89 C 1279.09 1639.94 1277.03 1647.94 1270.61 1650.63 C 1258.16 1655.86 1253.63 1636.45 1252.96 1628.32 C 1252.86 1615.05 1253.42 1607.17 1265.22 1599.16 z"/>
<path transform="translate(0,0)" fill="rgb(242,204,149)" d="M 1252.96 1628.32 C 1252.86 1615.05 1253.42 1607.17 1265.22 1599.16 C 1265.39 1606.54 1263.31 1628.6 1253.84 1628.86 L 1252.96 1628.32 z"/>
<path transform="translate(0,0)" fill="rgb(239,169,73)" d="M 1329.86 1633.66 C 1329.01 1639.18 1329.19 1642.35 1325.53 1646.14 C 1313.76 1646.89 1311.73 1614.55 1319.35 1607.07 C 1325.05 1601.46 1327.75 1607.57 1330 1606.98 C 1336.73 1605.2 1336.42 1600.15 1346.1 1600.05 C 1358.02 1606.68 1358.56 1616.67 1358.12 1629.26 C 1356.91 1637.27 1352.72 1656.62 1340.19 1650.87 C 1334.11 1648.09 1332.02 1639.64 1329.86 1633.66 z"/>
<path transform="translate(0,0)" fill="rgb(222,179,131)" d="M 1346.1 1600.05 C 1358.02 1606.68 1358.56 1616.67 1358.12 1629.26 C 1353.05 1628.94 1355.15 1629.82 1351.4 1627.04 C 1347.17 1618.28 1346.25 1614.39 1345.78 1604.76 C 1344.85 1601.92 1345.07 1603.42 1346.1 1600.05 z"/>
<path transform="translate(0,0)" fill="rgb(242,204,149)" d="M 1345.78 1604.76 C 1351.93 1609.95 1355.89 1619.58 1351.4 1627.04 C 1347.17 1618.28 1346.25 1614.39 1345.78 1604.76 z"/>
<path transform="translate(0,0)" fill="rgb(239,169,73)" d="M 1375.09 1628.24 C 1375.19 1634.35 1369.17 1651.38 1361.36 1648.81 C 1360.79 1647.22 1362.49 1636.06 1362.81 1633.29 C 1363.59 1626.61 1359.74 1609.22 1360.54 1605.98 L 1364.25 1604.01 C 1374.47 1608.83 1377.68 1617.38 1375.09 1628.24 z"/>
<path transform="translate(0,0)" fill="rgb(222,179,131)" d="M 1364.25 1604.01 C 1374.47 1608.83 1377.68 1617.38 1375.09 1628.24 C 1367.73 1624.38 1364.17 1611.96 1364.25 1604.01 z"/>
<path transform="translate(0,0)" fill="rgb(239,169,73)" d="M 1243.36 1604.85 C 1247.66 1604.92 1247.35 1604.18 1249.74 1606.34 C 1250.53 1613.85 1246.76 1620.93 1246.8 1628.07 C 1246.83 1634.7 1252.47 1642.04 1249.27 1647.98 C 1232.53 1642.27 1231.68 1616.7 1243.36 1604.85 z"/>
<path transform="translate(0,0)" fill="rgb(157,100,80)" d="M 1223.46 1437.98 C 1239.28 1446.84 1248.58 1452.33 1266.34 1457.32 C 1273.16 1459.24 1294.53 1463.55 1299.11 1465.76 C 1278 1469.02 1260.7 1471.35 1241.65 1481.82 C 1203.33 1502.87 1190.03 1550.39 1209.47 1589.21 L 1210.49 1590.26 C 1215.95 1597.63 1218.99 1601.19 1225.42 1607.79 L 1230.86 1611.96 C 1230.46 1613.86 1229.78 1617.77 1229.08 1619.37 C 1187.53 1604.42 1158.6 1575.78 1163.06 1529.01 C 1164.75 1511.25 1172.4 1496.58 1180.55 1481.09 L 1181.66 1479.79 C 1186.37 1477.97 1186.81 1478.2 1192 1478.64 C 1211.25 1475.87 1220.41 1454.78 1223.46 1437.98 z"/>
<path transform="translate(0,0)" fill="rgb(95,53,35)" d="M 1180.55 1481.09 L 1181.66 1479.79 C 1186.37 1477.97 1186.81 1478.2 1192 1478.64 C 1180.26 1492.12 1165.36 1531.68 1171.57 1549.72 C 1184.58 1562.76 1191.01 1579.01 1209.47 1589.21 L 1210.49 1590.26 C 1215.95 1597.63 1218.99 1601.19 1225.42 1607.79 L 1230.86 1611.96 C 1230.46 1613.86 1229.78 1617.77 1229.08 1619.37 C 1187.53 1604.42 1158.6 1575.78 1163.06 1529.01 C 1164.75 1511.25 1172.4 1496.58 1180.55 1481.09 z"/>
<path transform="translate(0,0)" fill="rgb(123,76,57)" d="M 1171.57 1549.72 C 1184.58 1562.76 1191.01 1579.01 1209.47 1589.21 L 1210.49 1590.26 C 1215.95 1597.63 1218.99 1601.19 1225.42 1607.79 C 1204.57 1609.6 1173.58 1571.13 1171.57 1549.72 z"/>
<path transform="translate(0,0)" fill="rgb(159,118,80)" d="M 1356.3 1462.06 C 1352.66 1477.88 1352.76 1487.94 1353.5 1504.09 C 1357.43 1508.22 1358.88 1509.15 1359.78 1514.73 C 1357.06 1514.55 1356.67 1514.45 1354.53 1512.77 C 1355.81 1520.26 1364.5 1530.08 1363.99 1536.54 C 1364.66 1540.9 1367.88 1546.7 1370.46 1550.31 C 1380.07 1563.75 1387.63 1565.18 1400.31 1557.11 C 1401.48 1560.56 1402.97 1564.56 1403.79 1568.06 C 1401.7 1573.71 1401.22 1577.39 1399.59 1582.33 L 1396.18 1579.78 C 1395.27 1577.11 1395.01 1575.89 1394.43 1573.18 C 1382.38 1567.79 1375.04 1583.12 1361.28 1556.21 C 1363.02 1553.11 1365.09 1550.24 1365.25 1546.78 L 1363.65 1546.73 L 1359.26 1551 C 1346.96 1529.69 1344.59 1502.63 1348.7 1478.7 L 1350.1 1475.64 C 1350.99 1473.29 1352.6 1466.13 1353.3 1463.35 L 1356.3 1462.06 z"/>
<path transform="translate(0,0)" fill="rgb(119,115,58)" d="M 1356.3 1462.06 C 1352.66 1477.88 1352.76 1487.94 1353.5 1504.09 C 1357.43 1508.22 1358.88 1509.15 1359.78 1514.73 C 1357.06 1514.55 1356.67 1514.45 1354.53 1512.77 C 1355.81 1520.26 1364.5 1530.08 1363.99 1536.54 C 1361.04 1534.38 1360.56 1531.12 1358.89 1528.88 C 1348.03 1514.32 1355.19 1487.27 1350.1 1475.64 C 1350.99 1473.29 1352.6 1466.13 1353.3 1463.35 L 1356.3 1462.06 z"/>
<path transform="translate(0,0)" fill="rgb(110,69,32)" d="M 1359.26 1551 L 1363.65 1546.73 L 1365.25 1546.78 C 1365.09 1550.24 1363.02 1553.11 1361.28 1556.21 C 1345.91 1565.21 1338.87 1558.82 1330.84 1545.68 C 1341.01 1552.56 1347.24 1556.93 1359.26 1551 z"/>
<path transform="translate(0,0)" fill="rgb(159,118,80)" d="M 1210.49 1590.26 C 1213.92 1590.31 1233.7 1601.25 1236.05 1603.68 C 1234.17 1607.62 1233.56 1608.51 1230.86 1611.96 L 1225.42 1607.79 C 1218.99 1601.19 1215.95 1597.63 1210.49 1590.26 z"/>
<path transform="translate(0,0)" fill="rgb(149,97,53)" d="M 1286.48 1557.51 C 1303.13 1565.53 1299.95 1569.95 1318.72 1559.21 L 1319.52 1560.01 L 1318.64 1564.69 C 1306.45 1578.77 1293.11 1573.53 1286.48 1557.51 z"/>
<path transform="translate(0,0)" fill="rgb(110,69,32)" d="M 1239.7 1544.57 C 1248.89 1550.96 1255.82 1557.15 1266.79 1550.28 C 1268.81 1549.02 1270.78 1547.86 1273.14 1547.8 L 1272.47 1550.93 C 1261.73 1567.82 1246.52 1560.96 1239.7 1544.57 z"/>
<path transform="translate(0,0)" fill="rgb(110,69,32)" d="M 1308.01 1514.57 C 1309.27 1515.34 1313.49 1519.29 1315.16 1520.45 C 1326.33 1528.21 1333.37 1519.16 1339.76 1518.13 L 1339.08 1521.03 C 1336.19 1525.46 1332.99 1528.57 1327.69 1529.93 C 1323.92 1530.94 1319.91 1530.36 1316.58 1528.34 C 1310.78 1524.85 1309.7 1520.71 1308.01 1514.57 z"/>
<path transform="translate(0,0)" fill="rgb(110,69,32)" d="M 1264.96 1516.49 C 1288.9 1532.73 1285.9 1519 1297.77 1519.69 L 1296.84 1523.31 C 1284.75 1537.76 1271.99 1531.98 1264.96 1516.49 z"/>
<path transform="translate(0,0)" fill="rgb(110,69,32)" d="M 1220.71 1508.75 C 1227.09 1513.43 1236.81 1520.08 1244.98 1515.15 C 1246.93 1513.97 1248.38 1513.34 1250.57 1512.71 L 1252.1 1513.57 L 1251.14 1516.37 C 1239.45 1529.66 1226.41 1524.14 1220.71 1508.75 z"/>
<path transform="translate(0,0)" fill="rgb(255,255,255)" d="M 1128.78 1153.69 C 1173.32 1162.42 1214.83 1174.5 1253.38 1199.64 C 1290.23 1223.66 1287.59 1256.35 1270.24 1291.81 C 1266.93 1298.59 1263.51 1305.03 1258.77 1311.02 C 1251.47 1311.22 1235.3 1320.29 1223.82 1321.08 C 1164.29 1325.2 1111.84 1281.18 1105.73 1221.92 C 1105.28 1200.47 1108.21 1191.78 1115.64 1171.9 C 1120.12 1166.08 1124.11 1159.75 1128.78 1153.69 z"/>
<path transform="translate(0,0)" fill="rgb(56,44,37)" d="M 1225.13 1240.56 C 1232.58 1238.4 1240.62 1240.43 1246.16 1245.86 C 1251.71 1251.29 1253.89 1259.29 1251.88 1266.78 C 1249.87 1274.28 1243.98 1280.11 1236.46 1282.04 C 1225.09 1284.96 1213.47 1278.21 1210.37 1266.88 C 1207.27 1255.55 1213.85 1243.83 1225.13 1240.56 z"/>
<path transform="translate(0,0)" fill="rgb(255,255,255)" d="M 1234.81 1247.48 C 1237.8 1245.31 1241.99 1246 1244.14 1249.01 C 1246.29 1252.02 1245.57 1256.2 1242.54 1258.33 C 1239.55 1260.43 1235.41 1259.72 1233.29 1256.74 C 1231.17 1253.76 1231.84 1249.63 1234.81 1247.48 z"/>
<path transform="translate(0,0)" fill="rgb(166,192,69)" d="M 1062.34 1329.94 C 1066.23 1323.8 1068.39 1323.38 1075.39 1320.61 C 1089.76 1324.9 1096.21 1332.01 1107.27 1342.02 C 1111.33 1336.44 1114.88 1330.35 1122.33 1329.66 C 1139.52 1328.06 1149.4 1349.16 1158.98 1359.52 C 1166.36 1348.32 1173.32 1347.03 1184.11 1355.25 L 1192.05 1360.67 C 1193.77 1364.07 1197.04 1367.49 1199.58 1370.44 C 1201.57 1372.92 1202.5 1374.45 1205.26 1376.08 L 1207.78 1379.76 C 1211.41 1383.99 1214.6 1393.76 1216.57 1399.24 C 1218.17 1406.04 1219.72 1412.86 1221.21 1419.69 C 1221.86 1421.98 1222.77 1425.55 1223.54 1427.68 C 1223.9 1432.33 1224.01 1433.41 1223.46 1437.98 C 1220.41 1454.78 1211.25 1475.87 1192 1478.64 C 1186.81 1478.2 1186.37 1477.97 1181.66 1479.79 L 1180.55 1481.09 C 1164.81 1480.47 1149.47 1476 1135.86 1468.09 C 1115.91 1456.72 1090.95 1433.17 1084.64 1410.62 C 1080.46 1406.3 1075.02 1402.82 1070.42 1398.44 C 1052.33 1381.19 1046.53 1368.18 1040.85 1344.67 C 1042.35 1345.7 1047.89 1349.32 1048.95 1350.39 L 1064.79 1359.72 L 1065.3 1357.74 C 1061.76 1348.13 1061.3 1347.05 1061.88 1337.27 C 1062.67 1333.83 1063.02 1333.44 1062.34 1329.94 z"/>
<path transform="translate(0,0)" fill="rgb(115,135,52)" d="M 1202.72 1385.99 C 1204.82 1383.57 1200.37 1382.5 1200.81 1378.5 C 1207.37 1376.12 1200.76 1377.86 1207.78 1379.76 C 1211.41 1383.99 1214.6 1393.76 1216.57 1399.24 C 1218.17 1406.04 1219.72 1412.86 1221.21 1419.69 C 1221.86 1421.98 1222.77 1425.55 1223.54 1427.68 C 1223.9 1432.33 1224.01 1433.41 1223.46 1437.98 C 1220.41 1454.78 1211.25 1475.87 1192 1478.64 C 1186.81 1478.2 1186.37 1477.97 1181.66 1479.79 L 1180.55 1481.09 C 1164.81 1480.47 1149.47 1476 1135.86 1468.09 C 1115.91 1456.72 1090.95 1433.17 1084.64 1410.62 L 1088.45 1405.79 L 1090.38 1403.57 C 1090.19 1399.15 1087.9 1394.55 1086.21 1390.32 C 1089.49 1391.97 1093.3 1394.32 1096.83 1394.52 C 1102.98 1400.14 1107.63 1407.18 1113.56 1412.99 C 1126.91 1426.07 1141.97 1437.68 1159.12 1445.29 C 1175.13 1452.52 1197.05 1455.89 1209.9 1440.98 C 1211.99 1438.56 1213.7 1435.84 1214.93 1432.88 C 1218.41 1420.04 1207.96 1397.54 1202.72 1385.99 z"/>
<path transform="translate(0,0)" fill="rgb(102,116,45)" d="M 1062.34 1329.94 C 1066.23 1323.8 1068.39 1323.38 1075.39 1320.61 C 1089.76 1324.9 1096.21 1332.01 1107.27 1342.02 C 1111.33 1336.44 1114.88 1330.35 1122.33 1329.66 C 1139.52 1328.06 1149.4 1349.16 1158.98 1359.52 C 1166.36 1348.32 1173.32 1347.03 1184.11 1355.25 L 1192.05 1360.67 C 1193.77 1364.07 1197.04 1367.49 1199.58 1370.44 C 1201.57 1372.92 1202.5 1374.45 1205.26 1376.08 L 1207.78 1379.76 C 1200.76 1377.86 1207.37 1376.12 1200.81 1378.5 C 1200.37 1382.5 1204.82 1383.57 1202.72 1385.99 C 1196.34 1377.23 1192.25 1371.74 1184.66 1364.08 C 1179.4 1359.66 1175.49 1355.13 1168.56 1358.04 C 1163.45 1364.07 1163.97 1370.87 1163.28 1378.98 C 1158.32 1371.33 1132.56 1328.26 1118.32 1341.17 C 1114.19 1344.92 1115.76 1358.79 1116.17 1364.49 C 1110.29 1357.78 1104.29 1351.18 1098.19 1344.69 C 1084.51 1330.43 1060.83 1316.32 1068.43 1349.91 C 1072.38 1373.15 1084.96 1378.39 1096.83 1394.52 C 1093.3 1394.32 1089.49 1391.97 1086.21 1390.32 C 1087.9 1394.55 1090.19 1399.15 1090.38 1403.57 L 1088.45 1405.79 L 1084.64 1410.62 C 1080.46 1406.3 1075.02 1402.82 1070.42 1398.44 C 1052.33 1381.19 1046.53 1368.18 1040.85 1344.67 C 1042.35 1345.7 1047.89 1349.32 1048.95 1350.39 L 1064.79 1359.72 L 1065.3 1357.74 C 1061.76 1348.13 1061.3 1347.05 1061.88 1337.27 C 1062.67 1333.83 1063.02 1333.44 1062.34 1329.94 z"/>
<path transform="translate(0,0)" fill="rgb(102,116,45)" d="M 1040.85 1344.67 C 1042.35 1345.7 1047.89 1349.32 1048.95 1350.39 L 1064.79 1359.72 C 1072.55 1366.01 1068.61 1376.85 1075.21 1387.98 C 1078.41 1393.35 1083.42 1403.79 1088.45 1405.79 L 1084.64 1410.62 C 1080.46 1406.3 1075.02 1402.82 1070.42 1398.44 C 1052.33 1381.19 1046.53 1368.18 1040.85 1344.67 z"/>
<path transform="translate(0,0)" fill="rgb(131,149,62)" d="M 1048.95 1350.39 L 1064.79 1359.72 C 1072.55 1366.01 1068.61 1376.85 1075.21 1387.98 L 1075.22 1391.48 C 1070.43 1389.15 1049.64 1355.68 1048.95 1350.39 z"/>
<path transform="translate(0,0)" fill="rgb(199,221,105)" d="M 1068.43 1349.91 C 1060.83 1316.32 1084.51 1330.43 1098.19 1344.69 C 1104.29 1351.18 1110.29 1357.78 1116.17 1364.49 C 1115.76 1358.79 1114.19 1344.92 1118.32 1341.17 C 1132.56 1328.26 1158.32 1371.33 1163.28 1378.98 C 1163.97 1370.87 1163.45 1364.07 1168.56 1358.04 C 1175.49 1355.13 1179.4 1359.66 1184.66 1364.08 C 1192.25 1371.74 1196.34 1377.23 1202.72 1385.99 C 1207.96 1397.54 1218.41 1420.04 1214.93 1432.88 C 1213.19 1429.88 1212 1426.82 1211.19 1423.49 C 1208.15 1411.04 1187.71 1368.75 1170.71 1374.8 C 1166.8 1379.58 1167.47 1386.61 1167.28 1392.89 C 1159.92 1384.23 1133.02 1348.8 1120.82 1356.46 C 1117.2 1363.73 1120.68 1368.81 1120.57 1376.24 C 1111.22 1368.71 1084.38 1341.99 1071.7 1345.82 L 1070.55 1349.16 L 1068.43 1349.91 z"/>
<path transform="translate(0,0)" fill="rgb(157,100,80)" d="M 1275.3 1320.46 C 1277.24 1321.81 1279.15 1323.22 1281.01 1324.66 C 1284.24 1324.83 1284.06 1324.79 1287.16 1323.79 C 1293.81 1329.84 1300.59 1336.68 1307.13 1342.47 C 1312.39 1338.96 1327.36 1328.24 1332.23 1326.53 L 1337.52 1322.22 L 1342.44 1322.7 L 1339.61 1325.61 C 1338.76 1328.24 1338.03 1330.11 1337.71 1332.88 C 1341.69 1366.8 1353.36 1396.58 1378.36 1420.73 C 1387.58 1428.49 1395.89 1435.33 1406.2 1441.63 C 1410.59 1443.33 1416.57 1445.26 1419.36 1449.15 L 1389.45 1449.15 C 1382.22 1448.66 1372.27 1448.68 1365.1 1449.63 C 1363.03 1452.66 1358.54 1459.66 1356.3 1462.06 L 1353.3 1463.35 C 1352.6 1466.13 1350.99 1473.29 1350.1 1475.64 L 1348.7 1478.7 C 1343.59 1472.45 1317.23 1467.01 1308.47 1466.1 L 1299.11 1465.76 C 1294.53 1463.55 1273.16 1459.24 1266.34 1457.32 C 1248.58 1452.33 1239.28 1446.84 1223.46 1437.98 C 1224.01 1433.41 1223.9 1432.33 1223.54 1427.68 C 1222.77 1425.55 1221.86 1421.98 1221.21 1419.69 C 1219.72 1412.86 1218.17 1406.04 1216.57 1399.24 C 1214.6 1393.76 1211.41 1383.99 1207.78 1379.76 L 1205.26 1376.08 C 1235.43 1363.04 1254.71 1350.13 1274.27 1322.79 L 1275.3 1320.46 z"/>
<path transform="translate(0,0)" fill="rgb(123,76,57)" d="M 1216.57 1399.24 C 1256.19 1408.28 1338.06 1424.07 1378.36 1420.73 C 1387.58 1428.49 1395.89 1435.33 1406.2 1441.63 C 1410.59 1443.33 1416.57 1445.26 1419.36 1449.15 L 1389.45 1449.15 C 1382.22 1448.66 1372.27 1448.68 1365.1 1449.63 C 1363.03 1452.66 1358.54 1459.66 1356.3 1462.06 L 1353.3 1463.35 C 1352.6 1466.13 1350.99 1473.29 1350.1 1475.64 L 1348.7 1478.7 C 1343.59 1472.45 1317.23 1467.01 1308.47 1466.1 L 1299.11 1465.76 C 1294.53 1463.55 1273.16 1459.24 1266.34 1457.32 C 1248.58 1452.33 1239.28 1446.84 1223.46 1437.98 C 1224.01 1433.41 1223.9 1432.33 1223.54 1427.68 C 1222.77 1425.55 1221.86 1421.98 1221.21 1419.69 C 1219.72 1412.86 1218.17 1406.04 1216.57 1399.24 z"/>
<path transform="translate(0,0)" fill="rgb(123,76,57)" d="M 1223.54 1427.68 C 1272.1 1438.65 1314.95 1446.08 1365.1 1449.63 C 1363.03 1452.66 1358.54 1459.66 1356.3 1462.06 L 1353.3 1463.35 C 1352.6 1466.13 1350.99 1473.29 1350.1 1475.64 L 1348.7 1478.7 C 1343.59 1472.45 1317.23 1467.01 1308.47 1466.1 L 1299.11 1465.76 C 1294.53 1463.55 1273.16 1459.24 1266.34 1457.32 C 1248.58 1452.33 1239.28 1446.84 1223.46 1437.98 C 1224.01 1433.41 1223.9 1432.33 1223.54 1427.68 z"/>
<path transform="translate(0,0)" fill="rgb(157,100,80)" d="M 1308.47 1466.1 C 1322.33 1466.06 1340.35 1462.74 1353.3 1463.35 C 1352.6 1466.13 1350.99 1473.29 1350.1 1475.64 L 1348.7 1478.7 C 1343.59 1472.45 1317.23 1467.01 1308.47 1466.1 z"/>
<path transform="translate(0,0)" fill="url(#Gradient4)" d="M 1221.21 1419.69 C 1276.24 1432.53 1333.03 1443.23 1389.59 1442.22 C 1395.13 1442.12 1400.71 1442.5 1406.2 1441.63 C 1410.59 1443.33 1416.57 1445.26 1419.36 1449.15 L 1389.45 1449.15 C 1382.22 1448.66 1372.27 1448.68 1365.1 1449.63 C 1314.95 1446.08 1272.1 1438.65 1223.54 1427.68 C 1222.77 1425.55 1221.86 1421.98 1221.21 1419.69 z"/>
<path transform="translate(0,0)" fill="rgb(149,97,53)" d="M 1275.3 1320.46 C 1277.24 1321.81 1279.15 1323.22 1281.01 1324.66 C 1284.24 1324.83 1284.06 1324.79 1287.16 1323.79 C 1293.81 1329.84 1300.59 1336.68 1307.13 1342.47 C 1312.39 1338.96 1327.36 1328.24 1332.23 1326.53 L 1337.52 1322.22 L 1342.44 1322.7 L 1339.61 1325.61 C 1338.76 1328.24 1338.03 1330.11 1337.71 1332.88 C 1331.35 1341.27 1315.35 1377.94 1297.44 1365.76 C 1283.83 1356.49 1277.69 1338.32 1274.27 1322.79 L 1275.3 1320.46 z"/>
<path transform="translate(0,0)" fill="rgb(144,89,29)" d="M 1287.16 1323.79 C 1293.81 1329.84 1300.59 1336.68 1307.13 1342.47 C 1312.39 1338.96 1327.36 1328.24 1332.23 1326.53 L 1336.73 1326.09 L 1336.57 1327.32 L 1335.21 1328.21 C 1330.09 1331.6 1329.64 1331.79 1326.68 1337.27 C 1320.12 1342.35 1312.99 1346.32 1305.79 1350.4 C 1296.2 1344.13 1289.94 1337.09 1282.77 1328.33 L 1281.01 1324.66 C 1284.24 1324.83 1284.06 1324.79 1287.16 1323.79 z"/>
<path transform="translate(0,0)" fill="rgb(231,132,44)" d="M 1282.77 1328.33 C 1289.94 1337.09 1296.2 1344.13 1305.79 1350.4 C 1312.99 1346.32 1320.12 1342.35 1326.68 1337.27 C 1329.02 1341.22 1310.73 1366.77 1299.45 1356.6 C 1290.98 1348.97 1284.61 1339.5 1282.77 1328.33 z"/>
<path transform="translate(0,0)" fill="rgb(157,100,80)" d="M 1024.09 1266.54 C 1019.45 1243.87 1026.65 1193.61 1039.8 1173.65 C 1049.52 1158.89 1058.85 1154.95 1074.83 1151.53 C 1068.96 1163.21 1064.61 1172.21 1061.31 1184.93 C 1051.38 1195.19 1040.95 1208.78 1054.68 1220.77 L 1056.06 1222.45 C 1065.75 1225.55 1071.75 1226.08 1081.95 1226.78 L 1082.22 1225.83 C 1085.89 1225.84 1100.73 1222.64 1105.73 1221.92 C 1111.84 1281.18 1164.29 1325.2 1223.82 1321.08 C 1235.3 1320.29 1251.47 1311.22 1258.77 1311.02 C 1255.94 1315.22 1253.57 1318.64 1249.4 1321.7 C 1247.31 1325.79 1240.53 1334.11 1236.67 1336.11 C 1221.97 1349.06 1210.84 1354.9 1192.05 1360.67 L 1184.11 1355.25 C 1173.32 1347.03 1166.36 1348.32 1158.98 1359.52 C 1149.4 1349.16 1139.52 1328.06 1122.33 1329.66 C 1114.88 1330.35 1111.33 1336.44 1107.27 1342.02 C 1096.21 1332.01 1089.76 1324.9 1075.39 1320.61 C 1068.39 1323.38 1066.23 1323.8 1062.34 1329.94 C 1046.78 1313.08 1032.37 1287.93 1024.09 1266.54 z"/>
<path transform="translate(0,0)" fill="rgb(123,76,57)" d="M 1082.22 1225.83 C 1085.89 1225.84 1100.73 1222.64 1105.73 1221.92 C 1111.84 1281.18 1164.29 1325.2 1223.82 1321.08 C 1235.3 1320.29 1251.47 1311.22 1258.77 1311.02 C 1255.94 1315.22 1253.57 1318.64 1249.4 1321.7 C 1247.31 1325.79 1240.53 1334.11 1236.67 1336.11 C 1233.09 1334.84 1212.22 1342.33 1205.62 1342.29 C 1130.55 1341.81 1064.83 1302.58 1056.06 1222.45 C 1065.75 1225.55 1071.75 1226.08 1081.95 1226.78 L 1082.22 1225.83 z"/>
<path transform="translate(0,0)" fill="rgb(203,203,203)" d="M 1082.22 1225.83 C 1085.89 1225.84 1100.73 1222.64 1105.73 1221.92 C 1111.84 1281.18 1164.29 1325.2 1223.82 1321.08 C 1235.3 1320.29 1251.47 1311.22 1258.77 1311.02 C 1255.94 1315.22 1253.57 1318.64 1249.4 1321.7 C 1174.43 1351.01 1094.31 1306.97 1081.95 1226.78 L 1082.22 1225.83 z"/>
<path transform="translate(0,0)" fill="rgb(167,159,155)" d="M 1093.03 1170.65 C 1098.77 1170.84 1110.24 1171 1115.64 1171.9 C 1108.21 1191.78 1105.28 1200.47 1105.73 1221.92 C 1100.73 1222.64 1085.89 1225.84 1082.22 1225.83 L 1081.95 1226.78 C 1071.75 1226.08 1065.75 1225.55 1056.06 1222.45 L 1054.68 1220.77 C 1040.95 1208.78 1051.38 1195.19 1061.31 1184.93 C 1063.91 1183.09 1066.47 1181.44 1069.14 1179.72 C 1076.19 1175.01 1084.93 1172.92 1093.03 1170.65 z"/>
<path transform="translate(0,0)" fill="rgb(233,233,233)" d="M 1093.03 1170.65 C 1098.77 1170.84 1110.24 1171 1115.64 1171.9 C 1108.21 1191.78 1105.28 1200.47 1105.73 1221.92 C 1100.73 1222.64 1085.89 1225.84 1082.22 1225.83 C 1081.72 1215.31 1082.62 1207.53 1083.75 1197.18 C 1086.6 1188.02 1089.72 1179.62 1093.03 1170.65 z"/>
<path transform="translate(0,0)" fill="rgb(209,183,171)" d="M 1061.31 1184.93 C 1063.91 1183.09 1066.47 1181.44 1069.14 1179.72 L 1069.37 1181.32 C 1053.35 1192.31 1059.41 1207.79 1054.68 1220.77 C 1040.95 1208.78 1051.38 1195.19 1061.31 1184.93 z"/>
<path transform="translate(0,0)" fill="rgb(209,183,171)" d="M 1069.14 1179.72 C 1076.19 1175.01 1084.93 1172.92 1093.03 1170.65 C 1089.72 1179.62 1086.6 1188.02 1083.75 1197.18 C 1082.91 1188.91 1086.24 1188.54 1085.88 1180.2 C 1082.61 1174.59 1074.06 1178.9 1069.37 1181.32 L 1069.14 1179.72 z"/>
<path transform="translate(0,0)" fill="rgb(239,169,73)" d="M 1276.37 1308.19 C 1281.48 1288.92 1304.63 1275.78 1321.77 1288.38 C 1324.2 1290.47 1327.09 1292.82 1329.41 1294.95 C 1339.06 1301.92 1346.54 1311.26 1337.52 1322.22 L 1332.23 1326.53 C 1327.36 1328.24 1312.39 1338.96 1307.13 1342.47 C 1300.59 1336.68 1293.81 1329.84 1287.16 1323.79 C 1281.81 1317.88 1280.07 1314.93 1276.37 1308.19 z"/>
<path transform="translate(0,0)" fill="rgb(242,204,149)" d="M 1321.77 1288.38 C 1324.2 1290.47 1327.09 1292.82 1329.41 1294.95 C 1331.25 1303.1 1333.49 1313.27 1329.48 1320.97 L 1326.74 1321.5 C 1319.1 1315.55 1317.17 1300.87 1316.65 1291.69 C 1318.3 1288.79 1317.63 1289.74 1321.77 1288.38 z"/>
<path transform="translate(0,0)" fill="url(#Gradient3)" d="M 1337.71 1332.88 C 1338.03 1330.11 1338.76 1328.24 1339.61 1325.61 C 1343.37 1335.57 1344.47 1349.55 1347.87 1360.05 C 1360.71 1399.61 1386.5 1425.48 1423.24 1444.2 C 1431.99 1448.97 1468.26 1460.3 1470.49 1464.9 C 1469.07 1466.67 1469.82 1466.02 1468.38 1467.02 C 1464.96 1466.13 1461.1 1465.34 1457.62 1464.55 C 1451.46 1461.96 1446.33 1460.4 1439.95 1458.42 C 1433.04 1455.51 1426.4 1452.11 1419.36 1449.15 C 1416.57 1445.26 1410.59 1443.33 1406.2 1441.63 C 1395.89 1435.33 1387.58 1428.49 1378.36 1420.73 C 1353.36 1396.58 1341.69 1366.8 1337.71 1332.88 z"/>
<path transform="translate(0,0)" fill="rgb(123,76,57)" d="M 1074.83 1151.53 C 1085.87 1150.81 1093.5 1150.64 1104.56 1151.24 C 1101.05 1156.91 1096.34 1165.7 1093.03 1170.65 C 1084.93 1172.92 1076.19 1175.01 1069.14 1179.72 C 1066.47 1181.44 1063.91 1183.09 1061.31 1184.93 C 1064.61 1172.21 1068.96 1163.21 1074.83 1151.53 z"/>
<path transform="translate(0,0)" fill="rgb(144,89,29)" d="M 1290.27 1282.4 C 1295.27 1280.45 1296.83 1280.09 1301.1 1276.79 L 1309.05 1276.9 C 1320.66 1277.05 1326.75 1283.49 1335.46 1289.78 L 1340.6 1296.67 C 1346.18 1306.46 1350.02 1312.81 1342.44 1322.7 L 1337.52 1322.22 C 1346.54 1311.26 1339.06 1301.92 1329.41 1294.95 C 1327.09 1292.82 1324.2 1290.47 1321.77 1288.38 C 1304.63 1275.78 1281.48 1288.92 1276.37 1308.19 C 1273.2 1305.34 1273.87 1302.95 1273.21 1297.84 C 1277.05 1290.09 1283.23 1286.76 1290.27 1282.4 z"/>
<path transform="translate(0,0)" fill="rgb(56,44,37)" d="M 1290.27 1282.4 C 1308.55 1246.71 1349.84 1274.74 1340.6 1296.67 L 1335.46 1289.78 C 1326.75 1283.49 1320.66 1277.05 1309.05 1276.9 L 1301.1 1276.79 C 1296.83 1280.09 1295.27 1280.45 1290.27 1282.4 z"/>
<path transform="translate(0,0)" fill="rgb(255,255,255)" d="M 1301.1 1276.79 C 1316.26 1264.75 1328.19 1269.76 1334.6 1287.43 L 1335.14 1288.89 L 1335.46 1289.78 C 1326.75 1283.49 1320.66 1277.05 1309.05 1276.9 L 1301.1 1276.79 z"/>
<path transform="translate(0,0)" fill="rgb(56,44,37)" d="M 1199.58 1370.44 C 1224.42 1366.18 1246.57 1347.17 1262.44 1328.86 C 1265.6 1325.22 1268.12 1321.18 1271.32 1317.65 L 1272.68 1316.16 L 1275.3 1320.46 L 1274.27 1322.79 C 1254.71 1350.13 1235.43 1363.04 1205.26 1376.08 C 1202.5 1374.45 1201.57 1372.92 1199.58 1370.44 z"/>
<path transform="translate(0,0)" fill="rgb(203,203,203)" d="M 1104.56 1151.24 C 1111.04 1150.95 1122.01 1152.67 1128.78 1153.69 C 1124.11 1159.75 1120.12 1166.08 1115.64 1171.9 C 1110.24 1171 1098.77 1170.84 1093.03 1170.65 C 1096.34 1165.7 1101.05 1156.91 1104.56 1151.24 z"/>
<path transform="translate(0,0)" fill="rgb(123,76,57)" d="M 1024.09 1266.54 C 1032.37 1287.93 1046.78 1313.08 1062.34 1329.94 C 1063.02 1333.44 1062.67 1333.83 1061.88 1337.27 C 1039.59 1316.3 1025.93 1298.33 1024.09 1266.54 z"/>
<path transform="translate(0,0)" fill="rgb(149,97,53)" d="M 1272.68 1316.16 C 1269.19 1309.06 1269.52 1304.78 1273.21 1297.84 C 1273.87 1302.95 1273.2 1305.34 1276.37 1308.19 C 1280.07 1314.93 1281.81 1317.88 1287.16 1323.79 C 1284.06 1324.79 1284.24 1324.83 1281.01 1324.66 C 1279.15 1323.22 1277.24 1321.81 1275.3 1320.46 L 1272.68 1316.16 z"/>
<path transform="translate(0,0)" fill="rgb(56,44,37)" d="M 1008.38 1169.2 C 1013.06 1189.15 1011.12 1197.21 1008.88 1217.21 C 1008.39 1212.64 1007.49 1195.41 1006.91 1193.21 L 1007.08 1192.32 C 1008.67 1184.33 1007.82 1177.27 1008.38 1169.2 z"/>
<path transform="translate(0,0)" fill="rgb(157,100,80)" d="M 1405.75 1241.15 C 1442.44 1236.18 1477.72 1241.3 1513.57 1249.33 C 1520.9 1251 1527.89 1252.54 1535.09 1254.7 C 1542.72 1257.01 1550.38 1259.17 1558.09 1261.18 C 1566.78 1264.38 1582.01 1272.55 1586.18 1273.93 C 1589.22 1275.5 1591.54 1276.52 1594.32 1278.53 C 1605.08 1285.35 1614.56 1293.86 1616.92 1307.01 C 1622.67 1339.07 1606.54 1376.98 1590.04 1403.28 C 1557.15 1455.71 1508.75 1461.4 1452.71 1444.56 C 1452.81 1444.61 1439.62 1440.07 1438.29 1439.54 C 1424.08 1433.27 1418.06 1429.27 1405.29 1420.08 C 1373.84 1397.3 1360.44 1365.8 1356.1 1328.27 L 1356.4 1319.07 L 1355.26 1312.75 C 1356.79 1292.99 1356.72 1264.94 1375.71 1253.21 C 1376.7 1252.82 1377.44 1252.16 1378.35 1251.51 L 1378.34 1248.95 C 1382 1244.03 1398.4 1240.99 1404.38 1239.91 L 1405.75 1241.15 z"/>
<path transform="translate(0,0)" fill="rgb(255,255,255)" d="M 1405.75 1241.15 C 1442.44 1236.18 1477.72 1241.3 1513.57 1249.33 L 1509.84 1263.38 C 1504.13 1282.17 1498.58 1290.29 1486.08 1305.54 C 1465.32 1324.95 1439.63 1335.68 1410.98 1334.91 C 1389.09 1334.32 1372.57 1325.52 1355.26 1312.75 C 1356.79 1292.99 1356.72 1264.94 1375.71 1253.21 C 1376.7 1252.82 1377.44 1252.16 1378.35 1251.51 L 1378.34 1248.95 C 1382 1244.03 1398.4 1240.99 1404.38 1239.91 L 1405.75 1241.15 z"/>
<path transform="translate(0,0)" fill="rgb(56,44,37)" d="M 1375.71 1253.21 C 1376.7 1252.82 1377.44 1252.16 1378.35 1251.51 L 1378.34 1248.95 C 1382 1244.03 1398.4 1240.99 1404.38 1239.91 L 1405.75 1241.15 L 1392.22 1244.64 C 1404.49 1246.84 1408.59 1247.91 1413.18 1260.55 L 1406.83 1260.99 C 1406.09 1262.75 1404.65 1264.14 1402.85 1264.81 C 1401.05 1265.48 1399.05 1265.37 1397.33 1264.52 C 1386.4 1269.74 1384.9 1271.14 1380.66 1283.01 C 1370.24 1273.85 1369.39 1265.21 1375.71 1253.21 z"/>
<path transform="translate(0,0)" fill="rgb(255,255,255)" d="M 1397.33 1264.52 C 1393.94 1262.84 1392.51 1258.76 1394.12 1255.33 C 1395.73 1251.9 1399.79 1250.38 1403.25 1251.93 C 1406.71 1253.47 1408.3 1257.49 1406.83 1260.99 C 1406.09 1262.75 1404.65 1264.14 1402.85 1264.81 C 1401.05 1265.48 1399.05 1265.37 1397.33 1264.52 z"/>
<path transform="translate(0,0)" fill="rgb(167,159,155)" d="M 1406.83 1260.99 L 1413.18 1260.55 C 1414.68 1280.91 1398.25 1295.6 1380.66 1283.01 C 1384.9 1271.14 1386.4 1269.74 1397.33 1264.52 C 1399.05 1265.37 1401.05 1265.48 1402.85 1264.81 C 1404.65 1264.14 1406.09 1262.75 1406.83 1260.99 z"/>
<path transform="translate(0,0)" fill="rgb(255,255,255)" d="M 1586.18 1273.93 C 1589.22 1275.5 1591.54 1276.52 1594.32 1278.53 C 1605.08 1285.35 1614.56 1293.86 1616.92 1307.01 C 1622.67 1339.07 1606.54 1376.98 1590.04 1403.28 C 1557.15 1455.71 1508.75 1461.4 1452.71 1444.56 C 1452.81 1444.61 1439.62 1440.07 1438.29 1439.54 C 1468.35 1433.09 1490.65 1430.5 1518.45 1413.69 C 1551.49 1393.72 1572.86 1363.43 1582 1326.08 L 1578.74 1326.94 L 1579.64 1326.02 C 1584.87 1313.8 1584.83 1309.13 1586.17 1295.71 L 1586.04 1295.16 L 1586.18 1273.93 z"/>
<path transform="translate(0,0)" fill="rgb(95,53,35)" d="M 1582 1326.08 L 1590.25 1325.67 C 1574.93 1386.12 1531.58 1426.2 1471.73 1440.51 C 1465.88 1441.91 1458.17 1442.83 1452.71 1444.56 C 1452.81 1444.61 1439.62 1440.07 1438.29 1439.54 C 1468.35 1433.09 1490.65 1430.5 1518.45 1413.69 C 1551.49 1393.72 1572.86 1363.43 1582 1326.08 z"/>
<path transform="translate(0,0)" fill="rgb(159,118,80)" d="M 1586.17 1295.71 C 1588.34 1297.4 1591.44 1300.21 1593.83 1300.94 C 1592.86 1308.56 1591.9 1318.33 1590.25 1325.67 L 1582 1326.08 L 1578.74 1326.94 L 1579.64 1326.02 C 1584.87 1313.8 1584.83 1309.13 1586.17 1295.71 z"/>
<path transform="translate(0,0)" fill="rgb(95,53,35)" d="M 1586.18 1273.93 C 1589.22 1275.5 1591.54 1276.52 1594.32 1278.53 C 1594.65 1286.81 1594.35 1292.62 1593.83 1300.94 C 1591.44 1300.21 1588.34 1297.4 1586.17 1295.71 L 1586.04 1295.16 L 1586.18 1273.93 z"/>
<path transform="translate(0,0)" fill="url(#Gradient2)" d="M 1513.57 1249.33 C 1520.9 1251 1527.89 1252.54 1535.09 1254.7 C 1542.72 1257.01 1550.38 1259.17 1558.09 1261.18 C 1566.78 1264.38 1582.01 1272.55 1586.18 1273.93 L 1586.04 1295.16 L 1586.17 1295.71 C 1584.83 1309.13 1584.87 1313.8 1579.64 1326.02 C 1572.43 1318.4 1543.86 1316.45 1533.22 1315.48 L 1532.36 1314.76 L 1528.9 1320.2 L 1528.2 1320.24 C 1521.77 1317.5 1512.69 1315.03 1505.8 1312.96 L 1504.93 1313.29 C 1497.95 1311.78 1492.48 1308.68 1486.08 1305.54 C 1498.58 1290.29 1504.13 1282.17 1509.84 1263.38 L 1513.57 1249.33 z"/>
<path transform="translate(0,0)" fill="url(#Gradient1)" d="M 1558.09 1261.18 C 1566.78 1264.38 1582.01 1272.55 1586.18 1273.93 L 1586.04 1295.16 L 1586.17 1295.71 C 1584.83 1309.13 1584.87 1313.8 1579.64 1326.02 C 1572.43 1318.4 1543.86 1316.45 1533.22 1315.48 C 1542.68 1301.43 1547.24 1292.66 1554.75 1277.67 L 1554.38 1277.18 L 1558.09 1261.18 z"/>
<path transform="translate(0,0)" fill="rgb(157,100,80)" d="M 1558.09 1261.18 C 1566.78 1264.38 1582.01 1272.55 1586.18 1273.93 L 1586.04 1295.16 C 1574.22 1287.2 1567.77 1283.21 1554.75 1277.67 L 1554.38 1277.18 L 1558.09 1261.18 z"/>
<path transform="translate(0,0)" fill="rgb(233,233,233)" d="M 1513.57 1249.33 C 1520.9 1251 1527.89 1252.54 1535.09 1254.7 C 1534.02 1258.92 1532.85 1264.18 1531.63 1268.26 L 1531.25 1268.72 C 1528.11 1283.05 1518.72 1301.28 1507.5 1310.73 L 1505.8 1312.96 L 1504.93 1313.29 C 1497.95 1311.78 1492.48 1308.68 1486.08 1305.54 C 1498.58 1290.29 1504.13 1282.17 1509.84 1263.38 L 1513.57 1249.33 z"/>
<path transform="translate(0,0)" fill="rgb(203,203,203)" d="M 1513.57 1249.33 C 1520.9 1251 1527.89 1252.54 1535.09 1254.7 C 1534.02 1258.92 1532.85 1264.18 1531.63 1268.26 L 1531.25 1268.72 C 1524.14 1266.81 1517.01 1265.03 1509.84 1263.38 L 1513.57 1249.33 z"/>
<path transform="translate(0,0)" fill="rgb(123,76,57)" d="M 1535.09 1254.7 C 1542.72 1257.01 1550.38 1259.17 1558.09 1261.18 L 1554.38 1277.18 C 1547.99 1274.5 1537.01 1271.23 1531.63 1268.26 C 1532.85 1264.18 1534.02 1258.92 1535.09 1254.7 z"/>
<path transform="translate(0,0)" fill="rgb(159,118,80)" d="M 1507.5 1310.73 C 1519.02 1310.64 1521.42 1310.68 1532.36 1314.76 L 1528.9 1320.2 L 1528.2 1320.24 C 1521.77 1317.5 1512.69 1315.03 1505.8 1312.96 L 1507.5 1310.73 z"/>
<path transform="translate(0,0)" fill="rgb(123,76,57)" d="M 1486.08 1305.54 C 1492.48 1308.68 1497.95 1311.78 1504.93 1313.29 L 1505.8 1312.96 C 1512.69 1315.03 1521.77 1317.5 1528.2 1320.24 C 1483.44 1367.16 1405.55 1373.13 1357.31 1328.51 L 1356.1 1328.27 L 1356.4 1319.07 L 1355.26 1312.75 C 1372.57 1325.52 1389.09 1334.32 1410.98 1334.91 C 1439.63 1335.68 1465.32 1324.95 1486.08 1305.54 z"/>
<path transform="translate(0,0)" fill="rgb(203,203,203)" d="M 1486.08 1305.54 C 1492.48 1308.68 1497.95 1311.78 1504.93 1313.29 C 1484.95 1333.74 1457.72 1345.46 1429.14 1345.92 C 1403.71 1346.54 1375.38 1335.76 1356.4 1319.07 L 1355.26 1312.75 C 1372.57 1325.52 1389.09 1334.32 1410.98 1334.91 C 1439.63 1335.68 1465.32 1324.95 1486.08 1305.54 z"/>
<path transform="translate(0,0)" fill="rgb(123,76,57)" d="M 1578.74 1326.94 L 1582 1326.08 C 1572.86 1363.43 1551.49 1393.72 1518.45 1413.69 C 1490.65 1430.5 1468.35 1433.09 1438.29 1439.54 C 1424.08 1433.27 1418.06 1429.27 1405.29 1420.08 C 1428.89 1419.97 1460.08 1415.34 1481.98 1408.05 C 1528.55 1392.56 1555.83 1370.62 1578.02 1327.1 L 1578.74 1326.94 z"/>
<path transform="translate(0,0)" fill="rgb(192,124,101)" d="M 1532.36 1314.76 L 1533.22 1315.48 C 1543.86 1316.45 1572.43 1318.4 1579.64 1326.02 L 1578.74 1326.94 L 1578.02 1327.1 C 1562.71 1327.28 1543.87 1323.56 1528.9 1320.2 L 1532.36 1314.76 z"/>
<path transform="translate(0,0)" fill="rgb(103,101,100)" d="M 1030.01 1125.35 C 1070.64 1124.09 1123.79 1132.36 1163 1144.41 C 1181.77 1150.19 1252.82 1179.62 1262.69 1191.26 C 1259.72 1191.48 1258.93 1190.43 1255.79 1188.91 C 1200.91 1159.63 1140.76 1141.59 1078.83 1135.83 C 1068.94 1134.83 1023.02 1135.02 1018.7 1129.85 L 1019.53 1127.89 C 1022.82 1126.22 1026.35 1125.93 1030.01 1125.35 z"/>
<path transform="translate(0,0)" fill="rgb(103,101,100)" d="M 1476.27 1229.55 C 1478.57 1228.93 1478.51 1228.91 1480.99 1229.14 C 1527.44 1233.59 1573.55 1245 1617.03 1261.88 C 1635.66 1269.12 1647.85 1271.75 1661.47 1287.26 L 1649.73 1283.73 C 1637.52 1279.54 1624.17 1273.25 1612.13 1268.1 C 1568.31 1249.38 1521.51 1244.56 1476.49 1232.09 C 1482.57 1230.77 1482.8 1233.83 1488.38 1232.88 L 1487.9 1231.57 C 1483.77 1230.21 1480.54 1230.03 1476.27 1229.55 z"/>
<path transform="translate(0,0)" fill="rgb(103,101,100)" d="M 1285.98 1208.9 C 1288.47 1210.26 1298.42 1217.26 1301.19 1219.1 C 1321.5 1232.6 1338.48 1236.31 1362.59 1233.46 C 1367.1 1232.92 1379.99 1230.25 1383.37 1231.1 L 1384.13 1232.91 L 1382.72 1235.8 C 1356.06 1245.09 1328.81 1245.23 1304.45 1229.66 C 1297.01 1224.9 1289.4 1217.16 1285.98 1208.9 z"/>
<path transform="translate(0,0)" fill="rgb(110,69,32)" d="M 1444.92 1619.21 C 1454.87 1618.55 1454.1 1612.59 1461.77 1611.76 C 1476.53 1610.18 1494.38 1613.83 1508.98 1613.21 C 1521.78 1612.67 1520.62 1605.64 1534.28 1617.85 C 1535.13 1618.62 1535.96 1619.41 1536.77 1620.22 L 1562.79 1620.38 C 1577.34 1620.02 1595.78 1617.23 1606.4 1628.96 C 1630.68 1655.78 1627.32 1715.27 1609 1743.77 C 1616.34 1745.86 1627.74 1747.56 1630.11 1755.69 L 1628.68 1758.25 C 1609.78 1771.21 1493.99 1777.74 1465.49 1779.37 C 1239.59 1790.56 1013.33 1792.93 787.244 1786.48 C 717.951 1784.94 648.699 1781.94 579.534 1777.47 C 558.293 1775.99 446.532 1768.88 437.725 1755.94 L 438.139 1753.89 C 447.431 1743.94 496.098 1740.37 510.743 1737.84 C 517.303 1736.7 525.327 1737.15 531.811 1734.43 C 514.878 1727.84 497.895 1721.39 480.865 1715.06 C 462.002 1707.11 438.968 1699.45 419.358 1691.81 C 439.319 1683.36 459.771 1675.76 480.022 1667.14 C 494.946 1660.01 520.808 1651.37 536.806 1644.52 C 543.998 1641.44 586.67 1624.43 591.232 1623.88 C 606.776 1622.01 640.705 1622.85 657.737 1622.73 L 813.778 1621.89 L 1090.66 1620.76 L 1170.28 1620.33 C 1185.13 1620.2 1203.99 1619.51 1218.44 1620.34 C 1223.41 1620.88 1226.5 1620.44 1230.03 1623.48 L 1230.09 1624.86 C 1223.07 1628.26 1218.62 1627.63 1210.78 1627.71 L 1229.85 1627.94 C 1230.45 1634.07 1230.76 1635.3 1232.79 1641.13 L 1234.33 1644.87 C 1242.77 1661.25 1249.82 1651.73 1261.7 1658.56 C 1266.6 1659.04 1268.34 1659.19 1273.21 1658.76 C 1277.4 1660.22 1279.6 1660.34 1284.06 1660.91 C 1293.36 1661.02 1332.35 1662.13 1338.2 1659.71 C 1341.7 1658.82 1346.24 1658.66 1349.94 1658.35 C 1372.75 1651.94 1377.37 1655.19 1382.1 1627.94 C 1381.71 1624.67 1381.49 1624.36 1382.19 1621.07 L 1384.42 1619.68 C 1404.39 1619.35 1425.01 1618.74 1444.92 1619.21 z"/>
<path transform="translate(0,0)" fill="rgb(203,203,203)" d="M 1444.92 1619.21 C 1454.87 1618.55 1454.1 1612.59 1461.77 1611.76 C 1476.53 1610.18 1494.38 1613.83 1508.98 1613.21 C 1521.78 1612.67 1520.62 1605.64 1534.28 1617.85 C 1535.13 1618.62 1535.96 1619.41 1536.77 1620.22 L 1562.79 1620.38 C 1577.34 1620.02 1595.78 1617.23 1606.4 1628.96 C 1630.68 1655.78 1627.32 1715.27 1609 1743.77 C 1616.34 1745.86 1627.74 1747.56 1630.11 1755.69 L 1628.68 1758.25 C 1609.78 1771.21 1493.99 1777.74 1465.49 1779.37 C 1239.59 1790.56 1013.33 1792.93 787.244 1786.48 C 717.951 1784.94 648.699 1781.94 579.534 1777.47 C 558.293 1775.99 446.532 1768.88 437.725 1755.94 L 438.139 1753.89 C 447.431 1743.94 496.098 1740.37 510.743 1737.84 C 517.303 1736.7 525.327 1737.15 531.811 1734.43 C 544.236 1738.7 589.452 1757.13 598.132 1757.61 C 620.921 1758.85 656.186 1757.85 680.172 1757.66 L 840.972 1756.98 L 1450.34 1754.03 L 1453.26 1747 C 1460.1 1734.39 1462.28 1725.28 1465.21 1711.43 C 1467.51 1689.5 1467.27 1679.83 1464.55 1657.99 C 1462.55 1649.85 1458.41 1629.53 1450.33 1626.51 C 1452.61 1625.71 1451.61 1626.35 1453.32 1624.55 L 1453.05 1622.76 C 1449.8 1619.88 1449.38 1620 1444.92 1619.21 z"/>
<path transform="translate(0,0)" fill="rgb(103,101,100)" d="M 1444.92 1619.21 C 1454.87 1618.55 1454.1 1612.59 1461.77 1611.76 C 1476.53 1610.18 1494.38 1613.83 1508.98 1613.21 C 1521.78 1612.67 1520.62 1605.64 1534.28 1617.85 C 1535.13 1618.62 1535.96 1619.41 1536.77 1620.22 L 1562.79 1620.38 C 1577.34 1620.02 1595.78 1617.23 1606.4 1628.96 C 1630.68 1655.78 1627.32 1715.27 1609 1743.77 C 1595.71 1755.72 1586.15 1753.32 1569.18 1753.44 C 1562.54 1753.48 1555.81 1753.3 1549.17 1753.24 L 1537.54 1753.73 C 1534.69 1756.86 1528.42 1764.29 1523.99 1763.8 C 1502.33 1761.39 1481.28 1762.63 1459.61 1763.1 C 1455.82 1763.19 1451.93 1756.94 1450.34 1754.03 L 1453.26 1747 C 1460.1 1734.39 1462.28 1725.28 1465.21 1711.43 C 1467.51 1689.5 1467.27 1679.83 1464.55 1657.99 C 1462.55 1649.85 1458.41 1629.53 1450.33 1626.51 C 1452.61 1625.71 1451.61 1626.35 1453.32 1624.55 L 1453.05 1622.76 C 1449.8 1619.88 1449.38 1620 1444.92 1619.21 z"/>
<path transform="translate(0,0)" fill="rgb(123,76,57)" d="M 1562.79 1620.38 C 1577.34 1620.02 1595.78 1617.23 1606.4 1628.96 C 1630.68 1655.78 1627.32 1715.27 1609 1743.77 C 1595.71 1755.72 1586.15 1753.32 1569.18 1753.44 C 1562.54 1753.48 1555.81 1753.3 1549.17 1753.24 C 1545.68 1753.15 1542.69 1753.45 1539.6 1751.98 C 1538.97 1748.49 1539.39 1749.16 1540.89 1745.28 C 1545.71 1732.57 1548.16 1713.25 1550.05 1699.64 C 1550.89 1676.61 1549.18 1666.46 1545.23 1644.11 C 1543.23 1638.45 1541.38 1633.8 1539.05 1628.28 C 1537.54 1626.32 1537.7 1626.33 1537.14 1623.88 C 1540.73 1617.91 1555.18 1623.13 1562.79 1620.38 z"/>
<path transform="translate(0,0)" fill="rgb(192,124,101)" d="M 1545.23 1644.11 C 1571.62 1644.23 1599.8 1635.75 1611.05 1665.54 L 1612.53 1666.08 L 1613.53 1664.32 L 1614.35 1668.9 L 1614.15 1682.14 C 1608.59 1692 1605.79 1697.28 1593.63 1700.96 C 1585.2 1703.51 1557.79 1701.8 1550.05 1699.64 C 1550.89 1676.61 1549.18 1666.46 1545.23 1644.11 z"/>
<path transform="translate(0,0)" fill="rgb(157,100,80)" d="M 1614.35 1668.9 C 1617.91 1692.63 1616.39 1745.52 1583.39 1745.64 C 1570.25 1745.69 1553.94 1746.97 1540.89 1745.28 C 1545.71 1732.57 1548.16 1713.25 1550.05 1699.64 C 1557.79 1701.8 1585.2 1703.51 1593.63 1700.96 C 1605.79 1697.28 1608.59 1692 1614.15 1682.14 L 1614.35 1668.9 z"/>
<path transform="translate(0,0)" fill="rgb(227,145,133)" d="M 1539.05 1628.28 C 1577.71 1627.57 1603.84 1618 1613.53 1664.32 L 1612.53 1666.08 L 1611.05 1665.54 C 1599.8 1635.75 1571.62 1644.23 1545.23 1644.11 C 1543.23 1638.45 1541.38 1633.8 1539.05 1628.28 z"/>
<path transform="translate(0,0)" fill="rgb(203,203,203)" d="M 1484.21 1626.98 C 1482.45 1623.66 1481.71 1623.77 1482.44 1621.09 C 1489.67 1617.52 1499.91 1620.05 1507.38 1621.96 C 1509 1622.37 1509.25 1624.23 1509.98 1625.81 C 1511.14 1633.48 1516.46 1646.97 1518.56 1656.19 C 1522.05 1676.47 1521.11 1686.43 1520.98 1706.78 C 1519.17 1722.33 1516.67 1739.76 1506.76 1752.53 C 1498.44 1753.18 1490.12 1753.97 1481.78 1753.85 C 1488.61 1740.22 1490.89 1731.16 1493.5 1715.94 C 1496.17 1695.41 1495.81 1674.59 1492.41 1654.17 C 1490.3 1644.93 1487.56 1635.84 1484.21 1626.98 z"/>
<path transform="translate(0,0)" fill="rgb(167,159,155)" d="M 1506.49 1700.22 L 1507.07 1696.28 C 1508.07 1697.32 1509.63 1705.2 1511 1708.26 C 1514.9 1710.77 1517.72 1710.89 1520.98 1706.78 C 1519.17 1722.33 1516.67 1739.76 1506.76 1752.53 C 1498.44 1753.18 1490.12 1753.97 1481.78 1753.85 C 1488.61 1740.22 1490.89 1731.16 1493.5 1715.94 C 1497.12 1715.52 1500.94 1715.01 1504.56 1714.71 C 1505.26 1709.89 1505.91 1705.06 1506.49 1700.22 z"/>
<path transform="translate(0,0)" fill="rgb(103,101,100)" d="M 1506.49 1700.22 C 1510.72 1708.45 1507 1739.94 1499.24 1745.96 L 1498.24 1745.3 C 1497.57 1736.21 1502.28 1723.9 1504.56 1714.71 C 1505.26 1709.89 1505.91 1705.06 1506.49 1700.22 z"/>
<path transform="translate(0,0)" fill="rgb(233,233,233)" d="M 1509.98 1625.81 C 1511.14 1633.48 1516.46 1646.97 1518.56 1656.19 C 1514.69 1655.2 1511.07 1655.03 1507.11 1654.67 C 1505.37 1643.45 1503.76 1638.39 1499.31 1627.98 L 1499.38 1626.99 C 1502.15 1625.61 1506.58 1625.93 1509.98 1625.81 z"/>
<path transform="translate(0,0)" fill="rgb(233,233,233)" d="M 1484.21 1626.98 C 1487.82 1626.72 1492.02 1626.07 1495.33 1627.17 C 1497.06 1631.49 1496.09 1650.24 1493.93 1653.82 L 1492.41 1654.17 C 1490.3 1644.93 1487.56 1635.84 1484.21 1626.98 z"/>
<path transform="translate(0,0)" fill="rgb(103,101,100)" d="M 1506.33 1671.97 C 1505.28 1661.85 1497.24 1633.35 1497.64 1628.63 L 1499.31 1627.98 C 1503.76 1638.39 1505.37 1643.45 1507.11 1654.67 C 1507.14 1660.98 1506.81 1665.7 1506.33 1671.97 z"/>
<path transform="translate(0,0)" fill="rgb(203,203,203)" d="M 1527.58 1657.12 C 1532.45 1657.24 1535.95 1657.13 1540.74 1658.19 C 1543.51 1679.36 1544.17 1693.45 1540.58 1715 C 1536.89 1716.22 1532.48 1715.41 1528.51 1715.07 C 1531.32 1695.09 1530.41 1676.97 1527.58 1657.12 z"/>
<path transform="translate(0,0)" fill="rgb(203,203,203)" d="M 1472.37 1656.82 L 1484.61 1657.31 C 1487.32 1679.76 1488.27 1692.13 1484.63 1715.16 C 1480.19 1714.79 1476.57 1714.8 1472.42 1713.21 C 1475.41 1689.91 1474.96 1679.62 1472.37 1656.82 z"/>
<path transform="translate(0,0)" fill="rgb(167,159,155)" d="M 1484.63 1715.16 C 1482.58 1727.03 1479.71 1742.03 1472.71 1752.19 C 1470.46 1755.46 1462.48 1756.05 1459.75 1753.07 C 1465.92 1737.62 1469.06 1729.77 1472.42 1713.21 C 1476.57 1714.8 1480.19 1714.79 1484.63 1715.16 z"/>
<path transform="translate(0,0)" fill="rgb(167,159,155)" d="M 1528.51 1715.07 C 1532.48 1715.41 1536.89 1716.22 1540.58 1715 C 1539.04 1725.95 1534.68 1761.29 1516.7 1754.62 C 1516.59 1751.26 1524.32 1733.99 1525.44 1728.84 C 1526.26 1725.05 1527.68 1719.34 1528.51 1715.07 z"/>
<path transform="translate(0,0)" fill="rgb(233,233,233)" d="M 1517.46 1624.97 L 1515.86 1621.89 L 1516.64 1620.21 C 1522.52 1617.96 1526.92 1620.71 1529.97 1625.7 C 1535.59 1637.56 1537.84 1645.34 1540.74 1658.19 C 1535.95 1657.13 1532.45 1657.24 1527.58 1657.12 C 1524.84 1644.54 1522.42 1636.84 1517.46 1624.97 z"/>
<path transform="translate(0,0)" fill="rgb(203,203,203)" d="M 1517.46 1624.97 L 1515.86 1621.89 L 1516.64 1620.21 C 1522.52 1617.96 1526.92 1620.71 1529.97 1625.7 C 1527.18 1625.43 1519.7 1624.4 1517.46 1624.97 z"/>
<path transform="translate(0,0)" fill="rgb(233,233,233)" d="M 1461.16 1625.29 L 1459.63 1622.49 L 1460.28 1620.54 C 1465.3 1617.02 1469.89 1619.72 1473.2 1624 C 1479.53 1635.97 1481.55 1643.94 1484.61 1657.31 L 1472.37 1656.82 C 1469.4 1643.42 1467.89 1637.06 1461.16 1625.29 z"/>
<path transform="translate(0,0)" fill="rgb(203,203,203)" d="M 1461.16 1625.29 L 1459.63 1622.49 L 1460.28 1620.54 C 1465.3 1617.02 1469.89 1619.72 1473.2 1624 C 1468.27 1624.89 1466.16 1625.15 1461.16 1625.29 z"/>
<path transform="translate(0,0)" fill="rgb(187,133,87)" d="M 1384.42 1619.68 C 1404.39 1619.35 1425.01 1618.74 1444.92 1619.21 C 1449.38 1620 1449.8 1619.88 1453.05 1622.76 L 1453.32 1624.55 C 1451.61 1626.35 1452.61 1625.71 1450.33 1626.51 C 1458.41 1629.53 1462.55 1649.85 1464.55 1657.99 C 1467.27 1679.83 1467.51 1689.5 1465.21 1711.43 C 1442.11 1710.88 1416.31 1712.6 1392.78 1712.94 L 1255.1 1713.82 C 1104.04 1715.25 952.961 1715.7 801.888 1715.17 L 668.028 1715.24 C 661.076 1715.25 618.017 1715.69 612.907 1714.52 C 580.196 1696.89 584.038 1678.19 613.379 1660.21 C 628.466 1661.6 649.083 1661.15 664.609 1661.31 C 694.21 1661.73 723.815 1661.88 753.418 1661.77 L 971.172 1661.8 L 1147.35 1661 C 1168.81 1660.91 1208.06 1662.46 1227.13 1660.91 L 1229.68 1661.57 C 1236.52 1660.59 1246.62 1660.83 1253.8 1660.8 C 1256.44 1660.08 1259.07 1659.33 1261.7 1658.56 C 1266.6 1659.04 1268.34 1659.19 1273.21 1658.76 C 1277.4 1660.22 1279.6 1660.34 1284.06 1660.91 C 1293.36 1661.02 1332.35 1662.13 1338.2 1659.71 C 1341.7 1658.82 1346.24 1658.66 1349.94 1658.35 C 1372.75 1651.94 1377.37 1655.19 1382.1 1627.94 C 1381.71 1624.67 1381.49 1624.36 1382.19 1621.07 L 1384.42 1619.68 z"/>
<path transform="translate(0,0)" fill="rgb(159,118,80)" d="M 1384.42 1619.68 C 1404.39 1619.35 1425.01 1618.74 1444.92 1619.21 C 1449.38 1620 1449.8 1619.88 1453.05 1622.76 L 1453.32 1624.55 C 1451.61 1626.35 1452.61 1625.71 1450.33 1626.51 L 1443.92 1627.21 C 1438.98 1629.98 1433.96 1634.29 1429.37 1637.76 C 1417.92 1646.42 1408.59 1652.82 1395.44 1658.59 L 1392.97 1659.32 C 1380.53 1657.69 1365.39 1660.87 1349.94 1658.35 C 1372.75 1651.94 1377.37 1655.19 1382.1 1627.94 C 1381.71 1624.67 1381.49 1624.36 1382.19 1621.07 L 1384.42 1619.68 z"/>
<path transform="translate(0,0)" fill="rgb(110,69,32)" d="M 1384.42 1619.68 C 1404.39 1619.35 1425.01 1618.74 1444.92 1619.21 C 1449.38 1620 1449.8 1619.88 1453.05 1622.76 L 1453.32 1624.55 C 1451.61 1626.35 1452.61 1625.71 1450.33 1626.51 L 1443.92 1627.21 C 1423.32 1626.71 1402.7 1626.95 1382.1 1627.94 C 1381.71 1624.67 1381.49 1624.36 1382.19 1621.07 L 1384.42 1619.68 z"/>
<path transform="translate(0,0)" fill="rgb(149,97,53)" d="M 1338.2 1659.71 C 1341.7 1658.82 1346.24 1658.66 1349.94 1658.35 C 1365.39 1660.87 1380.53 1657.69 1392.97 1659.32 C 1384.2 1663.38 1376.62 1666.48 1367.13 1668.7 C 1359.73 1668.49 1343.05 1669.86 1334.44 1670.2 C 1315.55 1670.95 1280.92 1668.23 1263.94 1671.01 C 1250.81 1668.44 1242.23 1666.12 1229.68 1661.57 C 1236.52 1660.59 1246.62 1660.83 1253.8 1660.8 C 1256.44 1660.08 1259.07 1659.33 1261.7 1658.56 C 1266.6 1659.04 1268.34 1659.19 1273.21 1658.76 C 1277.4 1660.22 1279.6 1660.34 1284.06 1660.91 C 1293.36 1661.02 1332.35 1662.13 1338.2 1659.71 z"/>
<path transform="translate(0,0)" fill="rgb(159,118,80)" d="M 1261.7 1658.56 C 1266.6 1659.04 1268.34 1659.19 1273.21 1658.76 C 1277.4 1660.22 1279.6 1660.34 1284.06 1660.91 C 1275.2 1661.35 1262.91 1660.87 1253.8 1660.8 C 1256.44 1660.08 1259.07 1659.33 1261.7 1658.56 z"/>
<path transform="translate(0,0)" fill="rgb(222,179,131)" d="M 1450.33 1626.51 C 1458.41 1629.53 1462.55 1649.85 1464.55 1657.99 C 1444.63 1657.81 1413.46 1659.96 1395.44 1658.59 C 1408.59 1652.82 1417.92 1646.42 1429.37 1637.76 C 1433.96 1634.29 1438.98 1629.98 1443.92 1627.21 L 1450.33 1626.51 z"/>
<path transform="translate(0,0)" fill="rgb(159,118,80)" d="M 1263.94 1671.01 C 1280.92 1668.23 1315.55 1670.95 1334.44 1670.2 C 1343.05 1669.86 1359.73 1668.49 1367.13 1668.7 C 1348.43 1680.94 1292.07 1677.34 1270.16 1672.61 C 1268.07 1672.15 1266 1671.62 1263.94 1671.01 z"/>
<path transform="translate(0,0)" fill="rgb(149,97,53)" d="M 1308.29 1680.44 C 1313.19 1680.13 1314.92 1680.17 1319.81 1680.69 L 1319.48 1681.33 C 1309.61 1683.15 1301.12 1683.31 1291.15 1683.74 L 1288.05 1683.65 L 1289.41 1682.79 L 1289.43 1682.08 C 1286.47 1682.04 1285.84 1682.19 1282.93 1681.55 C 1290.62 1680.85 1299.9 1681.06 1308.29 1680.44 z"/>
<path transform="translate(0,0)" fill="rgb(149,97,53)" d="M 656.059 1682.45 C 660.631 1681.86 663.569 1681.21 667.558 1683.53 C 662.932 1684.5 660.312 1684.15 656.059 1682.45 z"/>
<path transform="translate(0,0)" fill="rgb(149,97,53)" d="M 1465.21 1711.43 C 1462.28 1725.28 1460.1 1734.39 1453.26 1747 C 1370.82 1745.04 1287.05 1747.35 1204.5 1747.67 L 860.3 1749.32 L 694.596 1750.27 C 675.044 1750.6 655.49 1750.8 635.936 1750.86 C 623.784 1750.98 581.302 1756.25 589.868 1734.07 C 594.019 1723.31 603.254 1718.92 612.907 1714.52 C 618.017 1715.69 661.076 1715.25 668.028 1715.24 L 801.888 1715.17 C 952.961 1715.7 1104.04 1715.25 1255.1 1713.82 L 1392.78 1712.94 C 1416.31 1712.6 1442.11 1710.88 1465.21 1711.43 z"/>
<path transform="translate(0,0)" fill="rgb(110,69,32)" d="M 1305.47 1736.44 C 1317.66 1735.54 1325.96 1736.78 1337.99 1737.92 C 1342.6 1738.35 1347.33 1737.82 1352.04 1738.4 C 1342.03 1739 1328.07 1738.71 1317.75 1738.8 C 1304.37 1739.01 1281.85 1739.76 1269.24 1738.69 C 1271.91 1736.45 1299.99 1736.73 1305.47 1736.44 z"/>
<path transform="translate(0,0)" fill="rgb(222,179,131)" d="M 1210.78 1627.71 L 1229.85 1627.94 C 1230.45 1634.07 1230.76 1635.3 1232.79 1641.13 L 1234.33 1644.87 C 1242.77 1661.25 1249.82 1651.73 1261.7 1658.56 C 1259.07 1659.33 1256.44 1660.08 1253.8 1660.8 C 1246.62 1660.83 1236.52 1660.59 1229.68 1661.57 L 1227.13 1660.91 C 1208.06 1662.46 1168.81 1660.91 1147.35 1661 L 971.172 1661.8 L 753.418 1661.77 C 723.815 1661.88 694.21 1661.73 664.609 1661.31 C 649.083 1661.15 628.466 1661.6 613.379 1660.21 C 605.441 1657.55 587.671 1649.5 587.449 1640.42 C 587.249 1632.21 594.73 1630.54 600.77 1630.55 C 613.46 1630.59 626.485 1630.94 638.966 1630.82 C 679.588 1630.12 720.216 1629.81 760.844 1629.89 C 898.196 1629.47 1038.83 1630.42 1175.9 1627.88 C 1186.89 1627.85 1199.96 1628.14 1210.78 1627.71 z"/>
<path transform="translate(0,0)" fill="rgb(159,118,80)" d="M 1210.78 1627.71 L 1229.85 1627.94 C 1230.45 1634.07 1230.76 1635.3 1232.79 1641.13 L 1234.33 1644.87 C 1242.77 1661.25 1249.82 1651.73 1261.7 1658.56 C 1259.07 1659.33 1256.44 1660.08 1253.8 1660.8 C 1246.62 1660.83 1236.52 1660.59 1229.68 1661.57 L 1227.13 1660.91 C 1215.16 1655.95 1209.05 1653.47 1198.82 1645.64 C 1195 1643.86 1193.79 1644.09 1189.45 1643.88 C 1183.76 1644.46 1156.96 1643.57 1150.88 1643.21 C 1127.58 1641.85 1099.77 1642.17 1076.95 1639.45 C 1096.45 1638.2 1119.06 1639.06 1138.64 1639.41 C 1155.73 1639.7 1173.79 1639.67 1190.71 1640.76 C 1184.81 1636.11 1181.2 1633.15 1175.9 1627.88 C 1186.89 1627.85 1199.96 1628.14 1210.78 1627.71 z"/>
<path transform="translate(0,0)" fill="rgb(187,133,87)" d="M 1198.82 1645.64 C 1206.06 1644.53 1226.79 1644.74 1234.33 1644.87 C 1242.77 1661.25 1249.82 1651.73 1261.7 1658.56 C 1259.07 1659.33 1256.44 1660.08 1253.8 1660.8 C 1246.62 1660.83 1236.52 1660.59 1229.68 1661.57 L 1227.13 1660.91 C 1215.16 1655.95 1209.05 1653.47 1198.82 1645.64 z"/>
<path transform="translate(0,0)" fill="rgb(149,97,53)" d="M 1192.45 1640.98 C 1195.03 1639.79 1227.31 1641.15 1232.79 1641.13 L 1234.33 1644.87 C 1226.79 1644.74 1206.06 1644.53 1198.82 1645.64 C 1195 1643.86 1193.79 1644.09 1189.45 1643.88 L 1192.45 1640.98 z"/>
<path transform="translate(0,0)" fill="rgb(159,118,80)" d="M 660.652 1639.46 C 690.426 1637.56 732.317 1640.63 762.576 1641.28 C 787.385 1641.82 814.874 1641.95 839.401 1643.18 C 836.993 1644.46 809.307 1644.89 804.818 1645.01 C 753.849 1645.17 703.514 1646.77 652.455 1643.36 C 647.192 1643.01 629.006 1642.5 625.257 1640.93 C 631.569 1639.63 652.674 1639.63 660.652 1639.46 z"/>
<path transform="translate(0,0)" fill="rgb(222,179,131)" d="M 584.279 1649.55 C 590.42 1654.8 593.296 1657.31 600.58 1661.19 C 587.213 1672.15 575.603 1685.9 588.662 1702.38 C 590.986 1705.31 599.217 1711.56 599.884 1713.99 C 597.942 1715.63 596.125 1717.18 594.09 1718.71 C 581.087 1708.99 511.438 1701.1 492.458 1697.5 L 491.664 1695.31 C 491.954 1691.08 491.44 1686.71 491.11 1682.46 C 502.252 1676.16 515.22 1672.75 527.339 1668.61 C 546.268 1662.14 565.387 1656.14 584.279 1649.55 z"/>
<path transform="translate(0,0)" fill="rgb(187,133,87)" d="M 491.664 1695.31 L 492.458 1697.5 C 511.438 1701.1 581.087 1708.99 594.09 1718.71 C 584.513 1728.1 582.094 1733.26 585.13 1746.39 C 552.998 1732.41 517.697 1722.42 486.435 1709.22 C 489.472 1703.92 490.055 1701.07 491.664 1695.31 z"/>
<path transform="translate(0,0)" fill="rgb(56,44,37)" d="M 480.022 1667.14 C 482.174 1672.22 480.647 1670.66 485.73 1672.94 C 489.09 1676.82 489.335 1677.6 491.11 1682.46 C 491.44 1686.71 491.954 1691.08 491.664 1695.31 C 490.055 1701.07 489.472 1703.92 486.435 1709.22 C 484.624 1711.1 482.57 1713.14 480.865 1715.06 C 462.002 1707.11 438.968 1699.45 419.358 1691.81 C 439.319 1683.36 459.771 1675.76 480.022 1667.14 z"/>
<path transform="translate(0,0)" fill="rgb(60,56,53)" d="M 450.759 1687.57 C 461.042 1684.31 470.425 1677.95 480.35 1677.46 C 483.875 1679.02 482.779 1678.61 484.962 1683.08 C 485.563 1693.27 484.965 1698.03 483.449 1708.18 C 475.052 1704.67 451.884 1696.58 446.63 1691.08 L 446.242 1689.11 C 448.386 1687.73 448.217 1687.8 450.759 1687.57 z"/>
<path transform="translate(0,0)" fill="rgb(103,101,100)" d="M 450.759 1687.57 C 461.042 1684.31 470.425 1677.95 480.35 1677.46 C 483.875 1679.02 482.779 1678.61 484.962 1683.08 C 479.793 1685.86 456.497 1688.51 450.759 1687.57 z"/>
<path transform="translate(0,0)" fill="rgb(242,204,149)" d="M 583.721 1633.62 C 582.736 1640.18 582.216 1643.32 584.279 1649.55 C 565.387 1656.14 546.268 1662.14 527.339 1668.61 C 515.22 1672.75 502.252 1676.16 491.11 1682.46 C 489.335 1677.6 489.09 1676.82 485.73 1672.94 C 517.746 1661.03 551.956 1646.55 583.721 1633.62 z"/>
<path transform="translate(0,0)" fill="rgb(166,192,69)" d="M 1478.57 565.414 C 1516.63 562.22 1564.18 572.253 1592.96 598.514 C 1625.96 629.035 1637.49 679.566 1639.23 722.918 C 1643.3 823.893 1616.19 916.711 1500.25 923.474 C 1464.43 926.912 1416.48 916.991 1389.09 892.63 C 1339.66 848.099 1335.06 772.646 1340.09 710.385 C 1347.39 619.994 1387.14 571.298 1478.57 565.414 z"/>
<path transform="translate(0,0)" fill="rgb(255,255,255)" d="M 1480.01 651.279 C 1524.4 649.305 1532.33 673.595 1534.43 713.254 C 1536.34 749.364 1538.16 794.464 1522.16 827.297 C 1518.66 834.489 1506.59 838.385 1499.21 840.037 C 1451.69 845.377 1445.53 814.322 1443.19 774.648 C 1441.27 742.026 1439.7 696.824 1454.78 666.858 C 1459.44 657.591 1470.52 653.311 1480.01 651.279 z"/>
<path transform="translate(0,0)" fill="rgb(166,192,69)" d="M 1150.71 565.426 C 1185.8 561.947 1234.89 572.461 1261.71 596.548 C 1315.94 645.239 1317.21 739.683 1304.66 806.457 C 1291.08 878.667 1245.72 918.978 1172.75 923.303 C 1134.53 926.245 1090.2 918.177 1060.32 892.617 C 1026.13 863.376 1013.64 813.973 1011.01 770.672 C 1007.81 717.79 1012.66 647.765 1049.15 606.792 C 1075.91 576.743 1112.3 567.923 1150.71 565.426 z"/>
<path transform="translate(0,0)" fill="rgb(255,255,255)" d="M 1152.05 651.189 C 1176.53 650.443 1197.33 656.73 1201.8 684.894 C 1208.71 728.525 1212.59 787.18 1193.17 827.779 C 1189.73 834.973 1177.31 838.308 1170.12 839.919 C 1146.64 841.794 1124.28 836.611 1119.9 809.066 C 1113.12 766.375 1108.21 706.553 1126.38 666.174 C 1130.2 657.696 1143.66 652.988 1152.05 651.189 z"/>
<path transform="translate(0,0)" fill="rgb(166,192,69)" d="M 695.026 572.146 L 797.313 572.012 L 797.287 705.276 L 870.087 705.069 L 870.153 572.071 L 973.338 572.107 L 973.409 826.276 L 973.565 885.597 C 973.593 892.129 974.088 912.245 972.813 917.753 C 938.838 918.129 904.279 917.8 870.257 917.798 C 869.414 873.916 870.133 827.424 870.092 783.373 C 846.924 782.691 820.481 783.118 797.237 783.448 L 797.268 917.682 L 695.01 917.782 L 695.026 572.146 z"/>
<path transform="translate(0,0)" fill="rgb(166,192,69)" d="M 283.695 565.422 C 318.427 563.238 363.395 570.18 396.967 579.114 C 392.623 603.375 387.491 640.746 384.601 665.318 C 360.488 658.538 278.575 631.744 273.074 670.381 C 271.101 684.234 296.924 695.088 307.058 699.009 C 360.371 719.637 404.99 744.483 406.106 808.555 C 407.458 886.199 359.469 922.155 285.03 923.829 C 244.632 923.736 210.823 917.259 172.85 904.262 C 176.384 876.477 179.506 848.641 182.215 820.764 C 200.124 826.061 301.291 861.68 299.226 818.059 C 298.19 796.179 251.903 782.849 235.772 773.478 C 224.796 767.102 208.492 760.011 198.472 750.357 C 156.255 716.985 156.846 641.997 190.646 603.037 C 213.505 576.689 249.204 567.554 283.695 565.422 z"/>
<path transform="translate(0,0)" fill="rgb(166,192,69)" d="M 568.299 565.41 C 601.751 563.073 637.321 571.774 667.868 584.843 C 663.497 612.687 656.773 641.667 652.034 669.972 C 624.291 656.922 566.148 636.782 547.557 673.121 C 530.098 707.25 533.062 762.202 540.432 798.956 C 552.181 857.55 613.162 837.708 652.892 826.832 C 658.071 850.852 662.044 877.276 666.742 901.74 C 667.488 912.365 602.165 922.199 593.238 923.024 C 490.98 932.595 435.122 872.173 430.684 772.564 C 426.132 670.396 448.97 572.602 568.299 565.41 z"/>
<path transform="translate(0,0)" fill="rgb(166,192,69)" d="M 1677.21 572.124 L 1781.76 572.028 L 1781.89 838.27 L 1883.16 838.187 C 1881.84 863.031 1878.24 888.976 1876.79 914.246 L 1876.46 916.885 C 1873.59 918.599 1692.08 917.776 1677.15 917.776 C 1678.38 803.531 1677.39 686.577 1677.21 572.124 z"/>
<path transform="translate(0,0)" fill="rgb(231,132,44)" d="M 450.713 1158.8 L 525.243 1158.79 C 515.465 1184.13 502.544 1209.25 492.109 1234.4 C 486.752 1247.3 480.458 1260.88 474.047 1273.29 C 484.844 1296.51 495.373 1319.84 505.632 1343.3 C 511.913 1357.05 518.066 1370.86 524.09 1384.72 L 446.122 1384.82 C 435.841 1361 426.68 1336.43 417.074 1312.32 C 415.206 1307.63 414.023 1302.28 409.432 1299.81 L 408.016 1300.9 C 405.816 1309.06 407.742 1372.1 407.836 1384.79 L 339.159 1384.81 C 339.264 1310.08 338.182 1233.34 339.406 1158.82 L 407.317 1158.93 C 407.685 1172.52 406.087 1244.08 408.555 1251.06 L 410.401 1251.24 C 414.939 1247.36 445.717 1170.42 450.713 1158.8 z"/>
<path transform="translate(0,0)" fill="rgb(231,132,44)" d="M 729.382 1151.13 L 795.049 1151.15 L 794.972 1266.69 C 794.929 1287.99 794.692 1309.29 795.147 1330.59 C 795.393 1342.14 801.341 1340.78 810.74 1341.14 C 809.636 1354.81 807.294 1373.48 804.79 1386.85 C 779.242 1389.73 754.56 1391.5 736.963 1369.98 C 730.795 1377.75 726.308 1380.79 717.463 1384.68 C 701.695 1389.33 679.681 1389.68 664.623 1382.1 C 619.669 1359.54 622.104 1281.08 639.04 1242.09 C 654.167 1207.27 697.422 1199.2 729.131 1215.61 C 729.092 1194.12 729.176 1172.62 729.382 1151.13 z"/>
<path transform="translate(0,0)" fill="rgb(255,255,255)" d="M 711.08 1257.04 C 712.395 1256.98 713.688 1256.91 715.004 1256.98 C 719.628 1257.21 723.889 1258.02 727.039 1261.67 C 731.409 1266.72 729.744 1327.19 729.2 1338.16 C 723.774 1339.57 719.749 1339.99 714.245 1340.66 C 694.191 1338.05 695.396 1315.65 695.582 1299.81 C 695.757 1284.9 695.14 1263.47 711.08 1257.04 z"/>
<path transform="translate(0,0)" fill="rgb(231,132,44)" d="M 878.381 1208.38 C 900.586 1205.64 931.123 1211.08 952.475 1216.52 C 949.585 1232.16 947.129 1248.77 944.536 1264.52 C 933.943 1261.62 882.53 1246.89 879.811 1261.54 C 883.009 1269.06 896.953 1271.61 904.21 1274.1 C 929.149 1282.68 954.543 1295.73 956.739 1325.54 C 957.808 1340.05 954.44 1358.41 944.687 1369.7 C 933.021 1383.19 914.908 1386.82 897.925 1388.05 C 869.818 1388.45 854.324 1386.62 826.933 1379.35 C 828.196 1362.89 828.767 1346.55 830.163 1329.97 C 842.292 1333.6 893.447 1351.78 898.127 1335.57 C 896.353 1330.7 887.638 1326.4 882.411 1325.05 C 835.822 1313 797.667 1280.87 829.661 1230.92 C 838.843 1216.58 860.865 1210.38 878.381 1208.38 z"/>
<path transform="translate(0,0)" fill="rgb(231,132,44)" d="M 538.969 1213.96 C 561.111 1214.19 583.255 1214.19 605.397 1213.97 C 605.327 1269.35 606.861 1329.59 605.255 1384.59 C 583.541 1385.16 560.691 1384.81 538.894 1384.81 C 540.177 1329.36 539.122 1269.7 538.969 1213.96 z"/>
<path transform="translate(0,0)" fill="rgb(231,132,44)" d="M 560.424 1148.19 C 572.575 1147.21 586.464 1146.19 597.215 1152.86 C 603.091 1156.44 607.253 1162.26 608.742 1168.98 C 610.538 1176.61 609.159 1184.63 604.922 1191.22 C 599.576 1199.36 593.22 1202.05 584.184 1203.81 C 559.387 1205.5 522.866 1200.65 538.711 1160.81 C 541.72 1153.24 552.556 1149.76 560.424 1148.19 z"/>
</svg>